<?xml version="1.0" encoding="UTF-8"?>
<svg version="1.1" xmlns="http://www.w3.org/2000/svg" width="500" height="500">
<path d="M0 0 C165 0 330 0 500 0 C500 165 500 330 500 500 C335 500 170 500 0 500 C0 335 0 170 0 0 Z " fill="#000000" transform="translate(0,0)"/>
<path d="M0 0 C0.68811768 0.13929932 1.37623535 0.27859863 2.08520508 0.42211914 C5.6103426 1.12100519 9.05786926 1.19193328 12.63671875 1.24609375 C14.11524107 1.27899755 15.59375655 1.31220972 17.07226562 1.34570312 C19.38968735 1.39329942 21.70707475 1.43782921 24.0246582 1.47680664 C26.27061495 1.51639237 28.51604836 1.56792436 30.76171875 1.62109375 C31.80545906 1.63371498 31.80545906 1.63371498 32.87028503 1.64659119 C37.77321303 1.77321303 37.77321303 1.77321303 40 4 C39.94779297 4.91990723 39.89558594 5.83981445 39.84179688 6.78759766 C40.12647099 12.56806365 45.02470814 15.98334821 48.95996094 19.85205078 C50.49271102 21.3677919 51.9844507 22.9170189 53.4765625 24.47265625 C58.25550832 29.61077875 58.25550832 29.61077875 64.3984375 32.59082031 C66.76478631 32.5794713 66.76478631 32.5794713 70 32 C70.99 32.66 71.98 33.32 73 34 C73 34.66 73 35.32 73 36 C119.53 36 166.06 36 214 36 C214 58.44 214 80.88 214 104 C204.41195313 103.77054687 194.82390625 103.54109375 184.9453125 103.3046875 C178.82002287 103.21729686 172.69583487 103.13667083 166.5703125 103.0859375 C156.87514647 103.00441192 147.18572531 102.89687416 137.49414062 102.61132812 C97.72535335 99.42561375 97.72535335 99.42561375 63.01461792 114.10940552 C56.1989428 121.27754293 51.7054194 128.40769616 49 138 C47 140 47 140 44.5 140.25 C42 140 42 140 40 138 C38.0631387 137.6706462 38.0631387 137.6706462 35.82568359 137.68115234 C34.96494232 137.66128265 34.10420105 137.64141296 33.21737671 137.62094116 C32.28712677 137.60938995 31.35687683 137.59783875 30.3984375 137.5859375 C29.44683746 137.56657135 28.49523743 137.5472052 27.51480103 137.5272522 C24.46829253 137.46735868 21.42174646 137.42103205 18.375 137.375 C16.3124833 137.33682921 14.2499827 137.29777802 12.1875 137.2578125 C7.12513034 137.16164914 2.06268605 137.07765437 -3 137 C-3 137.66 -3 138.32 -3 139 C-4.65 139 -6.3 139 -8 139 C-8.625 137.125 -8.625 137.125 -9 135 C-8.34 134.34 -7.68 133.68 -7 133 C-5.14434814 133.36216736 -5.14434814 133.36216736 -3 134 C-1.56600771 134.10931529 -0.12826302 134.1750065 1.30957031 134.20532227 C2.15013977 134.22526749 2.99070923 134.24521271 3.85675049 134.26576233 C4.75480408 134.28247482 5.65285767 134.29918732 6.578125 134.31640625 C7.5046991 134.33718735 8.43127319 134.35796844 9.38592529 134.37937927 C12.34054272 134.44466961 15.29524768 134.50366431 18.25 134.5625 C20.25521732 134.60570473 22.26042585 134.64931965 24.265625 134.69335938 C29.17699404 134.80032999 34.08845097 134.90165518 39 135 C39.66 133.35 40.32 131.7 41 130 C42.03261963 129.94529541 43.06523926 129.89059082 44.12915039 129.83422852 C48.6936575 128.85050598 50.84570797 126.93584451 53.93359375 123.65234375 C54.71779442 122.85540855 54.71779442 122.85540855 55.51783752 122.04237366 C57.17243397 120.35438609 58.80485907 118.64670483 60.4375 116.9375 C61.56044437 115.78443772 62.68478045 114.63272906 63.81054688 113.48242188 C66.55671779 110.67035712 69.28320527 107.84044392 72 105 C56.75414171 103.01954404 56.75414171 103.01954404 42.703125 107.42578125 C37.26651636 112.28913145 34.7881191 116.61138343 34 124 C32 126 32 126 28.9375 126.1875 C26 126 26 126 25 125 C23.5478439 124.90179156 22.09097057 124.87201648 20.63549805 124.87060547 C19.24351448 124.86587723 19.24351448 124.86587723 17.82341003 124.86105347 C16.81305191 124.8630777 15.80269379 124.86510193 14.76171875 124.8671875 C13.72940628 124.86623077 12.69709381 124.86527405 11.63349915 124.86428833 C9.44357238 124.86360619 7.25364361 124.86546281 5.0637207 124.86962891 C1.71235591 124.87496046 -1.63887387 124.86969345 -4.99023438 124.86328125 C-7.11458363 124.86394235 -9.2389328 124.86522416 -11.36328125 124.8671875 C-12.36756668 124.86516327 -13.37185211 124.86313904 -14.40657043 124.86105347 C-15.34401596 124.86420563 -16.28146149 124.86735779 -17.24731445 124.87060547 C-18.07036575 124.87140106 -18.89341705 124.87219666 -19.7414093 124.87301636 C-22.01451213 124.91566442 -22.01451213 124.91566442 -24.17204285 125.63308716 C-24.77526871 125.7541684 -25.37849457 125.87524963 -26 126 C-26.66 125.34 -27.32 124.68 -28 124 C-27.625 121.875 -27.625 121.875 -27 120 C-25.35 120 -23.7 120 -22 120 C-22 120.66 -22 121.32 -22 122 C-6.82 122 8.36 122 24 122 C24.33 120.35 24.66 118.7 25 117 C26 116 26 116 29.22265625 115.75390625 C33.8109313 114.83814918 35.29869368 113.3342904 38.4375 109.9375 C39.30246094 109.01839844 40.16742188 108.09929687 41.05859375 107.15234375 C41.69925781 106.44207031 42.33992187 105.73179687 43 105 C33.27307263 104.93054332 23.54620409 104.87721083 13.8190794 104.84456348 C9.30255574 104.82889576 4.78620152 104.80763743 0.26977539 104.77368164 C-4.08740597 104.74112745 -8.44442418 104.72315532 -12.80171776 104.71536827 C-14.46554318 104.70981765 -16.1293595 104.69897882 -17.79311562 104.68280983 C-20.12049404 104.66108749 -22.44719501 104.65803083 -24.7746582 104.65942383 C-25.46517776 104.648638 -26.15569733 104.63785217 -26.86714172 104.6267395 C-30.62396102 104.60786371 -30.62396102 104.60786371 -33.73283386 106.50175476 C-34.15099869 106.99617569 -34.56916351 107.49059662 -35 108 C-39.36706908 108.38991688 -41.30513897 108.46324069 -45 106 C-49.70254191 110.55017271 -54.38120756 115.12389707 -59.04418945 119.71459961 C-60.63256186 121.27283458 -62.22628247 122.82563757 -63.82543945 124.37280273 C-66.12584835 126.60027358 -68.40618965 128.84669948 -70.68359375 131.09765625 C-71.40026718 131.78336197 -72.11694061 132.46906769 -72.85533142 133.17555237 C-77.08213054 137.39945185 -78.54822806 139.85580586 -79 146 C-82.67286286 148.44857524 -84.41729432 148.23745279 -88.79467773 148.21118164 C-89.48119415 148.2098674 -90.16771057 148.20855316 -90.87503052 148.2071991 C-93.14469171 148.20070752 -95.41401601 148.18027284 -97.68359375 148.16015625 C-99.26155736 148.15388504 -100.83952538 148.14864522 -102.41749573 148.14439392 C-106.57365113 148.1310854 -110.72965985 148.10665337 -114.88574219 148.07904053 C-121.53457783 148.03594269 -128.18345218 148.00618293 -134.83238411 147.9829998 C-137.15454214 147.97278406 -139.47657952 147.95573092 -141.7986908 147.93800354 C-143.22443535 147.93117396 -144.65018098 147.92456526 -146.07592773 147.91821289 C-147.31930405 147.90995987 -148.56268036 147.90170685 -149.84373474 147.89320374 C-152.89071882 147.8748441 -152.89071882 147.8748441 -155.30775452 148.63011169 C-155.86619553 148.75217484 -156.42463654 148.87423798 -157 149 C-157.66 148.34 -158.32 147.68 -159 147 C-158.625 144.875 -158.625 144.875 -158 143 C-156.35 143 -154.7 143 -153 143 C-153 143.66 -153 144.32 -153 145 C-131.88 145 -110.76 145 -89 145 C-89 143.35 -89 141.7 -89 140 C-87.875 138.1875 -87.875 138.1875 -86 137 C-85.05125 137.04125 -84.1025 137.0825 -83.125 137.125 C-78.86442504 136.954577 -77.8086531 135.03715369 -75 132 C-83.14508238 131.95364587 -91.29010958 131.91811521 -99.43529129 131.89637566 C-103.21748771 131.88594142 -106.99959383 131.87178884 -110.78173828 131.84912109 C-114.43217608 131.82737979 -118.08252705 131.81542866 -121.7330246 131.81024551 C-123.12527584 131.80655206 -124.51752238 131.79933966 -125.90973663 131.78853989 C-127.86067567 131.77400874 -129.81170218 131.77318294 -131.76269531 131.77294922 C-132.8730011 131.768508 -133.98330688 131.76406677 -135.1272583 131.75949097 C-137.95713987 131.9964117 -139.60165414 132.53163704 -142 134 C-142.66 133.34 -143.32 132.68 -144 132 C-143.625 129.375 -143.625 129.375 -143 127 C-142.31126801 127.16004013 -141.62253601 127.32008026 -140.91293335 127.48497009 C-137.69853015 128.05330228 -134.65715406 128.17872459 -131.39306641 128.24047852 C-130.07464752 128.26622452 -128.75622864 128.29197052 -127.39785767 128.3184967 C-121.39274141 128.40841849 -115.38742949 128.46847578 -109.38183594 128.51489258 C-106.21348643 128.54167195 -103.04663448 128.59046186 -99.87890625 128.65844727 C-96.04095226 128.74057899 -92.20442751 128.78309971 -88.36564255 128.79795647 C-86.90871514 128.81016588 -85.45183218 128.83611132 -83.99541092 128.87640572 C-75.85421537 129.28886734 -75.85421537 129.28886734 -68.57684326 126.2338562 C-66.82151447 124.23801076 -65.40213088 122.25173823 -64 120 C-63.34 119.34 -62.68 118.68 -62 118 C-90.71 117.67 -119.42 117.34 -149 117 C-149 117.66 -149 118.32 -149 119 C-150.65 118.67 -152.3 118.34 -154 118 C-153.67 116.35 -153.34 114.7 -153 113 C-152.35317764 113.15873093 -151.70635529 113.31746185 -151.03993225 113.48100281 C-147.14856632 114.14536235 -143.2977877 114.22931792 -139.36108398 114.30395508 C-138.50180801 114.32337662 -137.64253204 114.34279816 -136.75721741 114.36280823 C-128.84152014 114.53133433 -120.92453942 114.6282768 -113.00746059 114.70387745 C-107.69792527 114.75524412 -102.39099352 114.82970415 -97.08276367 114.96020508 C-91.93494783 115.08623602 -86.78947872 115.15231346 -81.64021492 115.17746544 C-79.68767416 115.19699058 -77.73521769 115.23721376 -75.78356743 115.29932594 C-63.13315095 115.8218207 -63.13315095 115.8218207 -52.45456791 109.86641216 C-49.28831201 106.55895678 -46.66724769 103.12231181 -44.31907654 99.17268372 C-43 97 -43 97 -41 96 C-35.62391681 95.54246101 -35.62391681 95.54246101 -33.125 97.375 C-32 99 -32 99 -32 101 C-22.05468198 101.52525462 -12.11665648 101.88756241 -2.15862656 102.05958939 C2.47041592 102.14431125 7.08529144 102.27845022 11.70800781 102.53955078 C35.78393875 104.07376169 35.78393875 104.07376169 56.75195312 93.82226562 C64.58917957 86.74052697 73.01249603 78.26558201 77.59454346 68.65582275 C79 66 79 66 82.4375 64.875 C86 65 86 65 87.90311813 66.97537613 C90.48600185 69.46925435 91.58082778 69.50444785 95.11260986 69.51898193 C96.14463531 69.53289474 97.17666077 69.54680756 98.23995972 69.56114197 C99.36636871 69.5561116 100.49277771 69.55108124 101.65332031 69.54589844 C102.84384003 69.55623611 104.03435974 69.56657379 105.26095581 69.57722473 C108.52109852 69.6016579 111.78070879 69.60848947 115.04092503 69.60750484 C118.44963133 69.61063405 121.85816679 69.63625231 125.26678467 69.65948486 C131.71943843 69.70004809 138.17199113 69.72038624 144.62475276 69.73345876 C151.97183386 69.74932779 159.31874294 69.78774291 166.66572428 69.82805204 C181.77709253 69.91045528 196.8884432 69.96454465 212 70 C212 67.03 212 64.06 212 61 C174.38 61 136.76 61 98 61 C97.34 62.32 96.68 63.64 96 65 C93.125 66 93.125 66 90 66 C88.0625 64.5625 88.0625 64.5625 86 62 C83.6956457 59.30754392 81.35558233 56.64771164 79 54 C78.28328125 53.19175781 77.5665625 52.38351562 76.828125 51.55078125 C72.0989133 46.48726321 68.94148341 43.88346152 62 43 C62 42.34 62 41.68 62 41 C61.34 41 60.68 41 60 41 C59.60663452 41.89912109 59.60663452 41.89912109 59.20532227 42.81640625 C57.92237541 45.14062677 56.76270335 46.27338992 54.71484375 47.9375 C49.00259899 52.78096719 43.67272754 57.99541489 38.34301758 63.25195312 C37.14960782 64.42359907 35.94996543 65.5889281 34.74438477 66.74804688 C32.9828242 68.44265242 31.24181698 70.15618823 29.50390625 71.875 C28.96544571 72.38562988 28.42698517 72.89625977 27.87220764 73.42236328 C24.17526386 77.14004364 23.44526344 79.86264246 23 85 C21 87 21 87 18 87.25 C15 87 15 87 13 85 C10.2956772 84.69964495 10.2956772 84.69964495 7.09741211 84.75708008 C5.85950424 84.75400345 4.62159637 84.75092682 3.34617615 84.74775696 C1.9898968 84.75465417 0.63361929 84.7619211 -0.72265625 84.76953125 C-2.10745704 84.77072297 -3.49225865 84.77117623 -4.87705994 84.7709198 C-7.77982642 84.77248482 -10.68246961 84.78077661 -13.58520508 84.79418945 C-17.31353857 84.81119521 -21.04173668 84.81500336 -24.77010441 84.81424427 C-27.62932131 84.81451563 -30.48850837 84.81999113 -33.34771538 84.82724571 C-34.72289237 84.83043657 -36.09807275 84.83240076 -37.47325325 84.83313942 C-39.39111668 84.83529765 -41.3089676 84.84482706 -43.22680664 84.85473633 C-44.86656212 84.86045403 -44.86656212 84.86045403 -46.53944397 84.86628723 C-48.94494784 84.72238262 -48.94494784 84.72238262 -50 86 C-51.66617115 86.04063832 -53.33388095 86.042721 -55 86 C-55 84.35 -55 82.7 -55 81 C-53.0625 80.4375 -53.0625 80.4375 -51 80 C-50.67 80.33 -50.34 80.66 -50 81 C-48.06776005 81.12357078 -46.13106201 81.17794458 -44.19506836 81.20532227 C-42.95385727 81.22526749 -41.71264618 81.24521271 -40.43382263 81.26576233 C-39.0691643 81.28274793 -37.70450463 81.29962669 -36.33984375 81.31640625 C-34.95121125 81.33696936 -33.5625851 81.35796566 -32.17396545 81.37937927 C-28.51285941 81.43466647 -24.85169627 81.48404626 -21.19049072 81.53222656 C-17.45702003 81.58239321 -13.72363262 81.63810446 -9.99023438 81.69335938 C-2.6602267 81.80102218 4.66985005 81.90244894 12 82 C12.309375 81.360625 12.61875 80.72125 12.9375 80.0625 C14 78 14 78 15 77 C16.670625 76.814375 16.670625 76.814375 18.375 76.625 C22.26331195 76.31337125 22.26331195 76.31337125 25 73 C12.13 72.505 12.13 72.505 -1 72 C-1.33 72.99 -1.66 73.98 -2 75 C-3.32 74.67 -4.64 74.34 -6 74 C-6.625 72.125 -6.625 72.125 -7 70 C-6.34 69.34 -5.68 68.68 -5 68 C-2.875 68.375 -2.875 68.375 -1 69 C-1 69.66 -1 70.32 -1 71 C2.96649506 71.080337 6.92854139 71.10011512 10.89575195 71.06713867 C12.89746775 71.06259095 14.89911903 71.10407201 16.90039062 71.14648438 C23.96121745 71.05755709 28.22859343 70.65176024 33.37890625 65.55859375 C35.21543103 63.41573053 36.74037955 61.51924091 38 59 C31.52200279 59.11767829 25.04417172 59.24250822 18.56640625 59.37231445 C16.362662 59.4156301 14.15888492 59.45730759 11.95507812 59.49731445 C8.78765976 59.55509844 5.62040614 59.61876976 2.453125 59.68359375 C1.46757629 59.70030624 0.48202759 59.71701874 -0.53338623 59.73423767 C-1.91436493 59.7641555 -1.91436493 59.7641555 -3.32324219 59.79467773 C-4.53569611 59.81799416 -4.53569611 59.81799416 -5.77264404 59.84178162 C-8.01856652 59.92160869 -8.01856652 59.92160869 -10.16729736 60.63783264 C-10.77208923 60.75734787 -11.3768811 60.8768631 -12 61 C-12.66 60.34 -13.32 59.68 -14 59 C-13.625 56.875 -13.625 56.875 -13 55 C-11.35 55 -9.7 55 -8 55 C-8 55.66 -8 56.32 -8 57 C-1.19037711 57.29177524 5.61292292 57.44404635 12.4284668 57.5065918 C14.73808549 57.54339015 17.04745273 57.61031066 19.35522461 57.7097168 C34.28546926 58.46892957 34.28546926 58.46892957 47.38720703 52.24951172 C55.7037075 44.85414286 55.7037075 44.85414286 60 35 C57.93690327 30.77455103 54.92435242 27.2472447 51.8125 23.75 C51.35835724 23.23944061 50.90421448 22.72888123 50.43630981 22.20285034 C43.53073223 14.85849262 36.97237146 12.07182167 26.9140625 11.51953125 C14.51801876 11.14295582 1.13944556 11.17741265 -11 14 C-11.33 12.35 -11.66 10.7 -12 9 C-10.34385343 8.61781233 -8.67542976 8.28604898 -7 8 C-6.67 8.33 -6.34 8.66 -6 9 C-3.33573315 9.16003488 -0.69439572 9.25942889 1.97265625 9.31640625 C2.77029892 9.33718735 3.56794159 9.35796844 4.38975525 9.37937927 C6.94724611 9.44496158 9.5048428 9.50379967 12.0625 9.5625 C13.79232882 9.60567699 15.52214679 9.64929101 17.25195312 9.69335938 C21.5011926 9.80065172 25.7505389 9.90189426 30 10 C30 8.02 30 6.04 30 4 C25.93724554 4.13923048 21.87487143 4.28753918 17.8125 4.4375 C16.66201172 4.47681641 15.51152344 4.51613281 14.32617188 4.55664062 C13.21435547 4.59853516 12.10253906 4.64042969 10.95703125 4.68359375 C9.93585205 4.72025146 8.91467285 4.75690918 7.86254883 4.79467773 C4.99133958 4.93715662 4.99133958 4.93715662 2.19018555 5.58227539 C1.46742432 5.72012451 0.74466309 5.85797363 0 6 C-0.33 5.67 -0.66 5.34 -1 5 C-3.21687994 4.84126045 -5.43855298 4.74866163 -7.66015625 4.68359375 C-8.65685585 4.6524221 -8.65685585 4.6524221 -9.6736908 4.62062073 C-11.80318543 4.55506342 -13.93280668 4.49621215 -16.0625 4.4375 C-17.50326847 4.39432061 -18.94402399 4.35070651 -20.38476562 4.30664062 C-23.9230404 4.19937607 -27.46145869 4.09812629 -31 4 C-31 3.34 -31 2.68 -31 2 C-29.64467163 1.96241577 -29.64467163 1.96241577 -28.26196289 1.92407227 C-24.9203572 1.82912683 -21.57893748 1.72988379 -18.23754883 1.62768555 C-16.7893576 1.5842837 -15.34111346 1.54261256 -13.89282227 1.50268555 C-11.81510441 1.44510938 -9.73765427 1.38137972 -7.66015625 1.31640625 C-6.40855713 1.27974854 -5.15695801 1.24309082 -3.86743164 1.20532227 C-1.10369496 1.32196094 -1.10369496 1.32196094 0 0 Z " fill="#E6AA50" transform="translate(286,338)"/>
<path d="M0 0 C2.0625 0.4375 2.0625 0.4375 4 1 C4.5625 2.9375 4.5625 2.9375 5 5 C4 6 4 6 1.4375 6.0625 C0.2309375 6.0315625 0.2309375 6.0315625 -1 6 C-1 5.34 -1 4.68 -1 4 C-22.12 4 -43.24 4 -65 4 C-65 5.65 -65 7.3 -65 9 C-66.125 10.8125 -66.125 10.8125 -68 12 C-68.94875 11.95875 -69.8975 11.9175 -70.875 11.875 C-74.80899033 11.67852349 -74.80899033 11.67852349 -79 17 C-58.21 17.33 -37.42 17.66 -16 18 C-16 17.34 -16 16.68 -16 16 C-14.35 16 -12.7 16 -11 16 C-10.375 17.875 -10.375 17.875 -10 20 C-10.66 20.66 -11.32 21.32 -12 22 C-13.34560335 21.72028495 -14.6771696 21.37283858 -16 21 C-18.14620395 20.86389251 -20.29591851 20.77996408 -22.44580078 20.7277832 C-23.75461212 20.69558182 -25.06342346 20.66338043 -26.41189575 20.63020325 C-31.61340466 20.52785658 -36.81531524 20.45333269 -42.01754951 20.39974689 C-45.95955065 20.35882557 -49.89905804 20.29856351 -53.83984375 20.19067383 C-57.66378473 20.08636746 -61.48550697 20.03225888 -65.3107872 20.01228905 C-66.75976747 19.99645545 -68.20867568 19.9634473 -69.65683365 19.91213417 C-75.79409355 19.70513164 -81.00804622 19.56399759 -86.18353271 23.29501343 C-88.65736848 25.7541824 -90.88486641 28.22943942 -93 31 C-81.74296664 31.02317073 -70.48593896 31.04093926 -59.2288866 31.05181217 C-54.00178497 31.05703063 -48.77469966 31.06410949 -43.54760742 31.07543945 C-38.50314359 31.08630513 -33.45869545 31.09228466 -28.41422081 31.09487724 C-26.48970988 31.09672484 -24.56519982 31.10033271 -22.64069557 31.10573006 C-19.94509652 31.11298927 -17.24956233 31.11398887 -14.55395508 31.11352539 C-13.75841721 31.11712067 -12.96287933 31.12071594 -12.14323425 31.12442017 C-8.30280408 31.1172754 -4.73278851 30.93616039 -1 30 C-0.67 31.65 -0.34 33.3 0 35 C-1.65614657 35.38218767 -3.32457024 35.71395102 -5 36 C-5.33 35.67 -5.66 35.34 -6 35 C-8.72916666 34.8056114 -11.43558902 34.67590489 -14.16894531 34.58837891 C-15.45457367 34.5422068 -15.45457367 34.5422068 -16.76617432 34.49510193 C-24.71312823 34.22111642 -32.66245958 34.02565468 -40.61220169 33.85315895 C-45.95079344 33.73649743 -51.28601545 33.59488668 -56.62207031 33.39160156 C-61.7841287 33.19552356 -66.94412084 33.06537263 -72.10915375 32.97983932 C-74.06956545 32.93640689 -76.02962152 32.87027796 -77.98844147 32.78013992 C-89.72235647 32.07322492 -89.72235647 32.07322492 -100.0814209 36.79364014 C-104.95751911 41.27590436 -108.71373129 46.26240154 -112 52 C-113 53 -113 53 -115.875 53.25 C-116.90625 53.1675 -117.9375 53.085 -119 53 C-119.61235252 52.27404884 -119.61235252 52.27404884 -120.23707581 51.53343201 C-122.93161703 49.18965809 -125.90920897 49.37682389 -129.33178711 49.21508789 C-130.45003876 49.14696648 -130.45003876 49.14696648 -131.59088135 49.07746887 C-138.54697892 48.68135596 -145.51389854 48.46834864 -152.47891903 48.30286503 C-157.14294234 48.19145942 -161.78983744 48.02791312 -166.44555664 47.72290039 C-190.66193767 45.94383472 -190.66193767 45.94383472 -211.77001953 56.19482422 C-220.35984788 63.97377083 -228.16233735 72.97369061 -234 83 C-235 84 -235 84 -237.875 84.3125 C-238.90625 84.209375 -239.9375 84.10625 -241 84 C-241.4564858 83.34425869 -241.91297159 82.68851738 -242.38329029 82.01290512 C-243.8232678 79.79093325 -243.8232678 79.79093325 -246.2744627 79.49219131 C-247.17136727 79.48850414 -248.06827185 79.48481697 -248.99235535 79.48101807 C-250.53833153 79.46014885 -250.53833153 79.46014885 -252.11553955 79.43885803 C-253.81054596 79.44640358 -253.81054596 79.44640358 -255.53979492 79.45410156 C-256.73016861 79.44376389 -257.9205423 79.43342621 -259.14698792 79.42277527 C-262.4113214 79.39831502 -265.6751239 79.39151137 -268.93953109 79.39249516 C-272.35091268 79.38936923 -275.76212297 79.36375784 -279.17341614 79.34051514 C-285.63318637 79.29992672 -292.09285559 79.27960785 -298.55273372 79.26654124 C-305.90704667 79.25068073 -313.26118748 79.21226922 -320.61540067 79.17194796 C-335.74356787 79.08951013 -350.87164499 79.03841954 -366 79 C-366 67.78 -366 56.56 -366 45 C-360.06990967 45.15879639 -360.06990967 45.15879639 -354.02001953 45.32080078 C-340.8613716 45.65367416 -327.70388449 45.84092151 -314.54167366 45.95596504 C-306.57115077 46.02909811 -298.6070774 46.15031655 -290.63964844 46.38867188 C-251.33298173 49.50822042 -251.33298173 49.50822042 -217.03390503 34.89059448 C-211.40934431 29.00237835 -205.62553984 22.51440819 -204.47781372 14.23147583 C-204.32013519 13.16508881 -204.16245667 12.09870178 -204 11 C-201 9 -201 9 -197.875 9.3125 C-195 10 -195 10 -194 11 C-190.90918535 11.1011692 -187.84117445 11.13968558 -184.75 11.1328125 C-183.82155273 11.13376923 -182.89310547 11.13472595 -181.93652344 11.13571167 C-179.96940035 11.13639355 -178.00227504 11.13453872 -176.03515625 11.13037109 C-173.01296974 11.12502295 -169.99093185 11.13031582 -166.96875 11.13671875 C-165.06249967 11.13605797 -163.15624943 11.13477681 -161.25 11.1328125 C-159.88439941 11.13584885 -159.88439941 11.13584885 -158.49121094 11.13894653 C-154.42336322 11.53891332 -154.42336322 11.53891332 -151 10 C-149.33382885 9.95936168 -147.66611905 9.957279 -146 10 C-146 11.65 -146 13.3 -146 15 C-147.9375 15.5625 -147.9375 15.5625 -150 16 C-150.33 15.67 -150.66 15.34 -151 15 C-154.0674048 14.86154473 -157.11064463 14.78679358 -160.1796875 14.76171875 C-161.56524338 14.74961113 -161.56524338 14.74961113 -162.97879028 14.73725891 C-164.93750115 14.72340172 -166.89623633 14.71268691 -168.85498047 14.70483398 C-171.85560679 14.68761131 -174.85513443 14.64373919 -177.85546875 14.59960938 C-179.7552002 14.58948386 -181.65494105 14.58096731 -183.5546875 14.57421875 C-184.90480423 14.54795662 -184.90480423 14.54795662 -186.28219604 14.52116394 C-188.58996542 14.52922627 -190.73307925 14.56639435 -193 15 C-194.69861049 16.86192233 -194.69861049 16.86192233 -196 19 C-197.64850952 19.45705322 -197.64850952 19.45705322 -199.33032227 19.92333984 C-203.54735694 21.16059105 -205.77800355 23.12742132 -208.71484375 26.2265625 C-209.21544815 26.73424164 -209.71605255 27.24192078 -210.23182678 27.76498413 C-211.81261702 29.37354336 -213.37502892 30.99866114 -214.9375 32.625 C-216.01249961 33.72510507 -217.08866124 34.82407591 -218.16601562 35.921875 C-220.790961 38.60165673 -223.39957749 41.29642391 -226 44 C-210.75414171 45.98045596 -210.75414171 45.98045596 -196.703125 41.57421875 C-191.26651636 36.71086855 -188.7881191 32.38861657 -188 25 C-187.34 24.34 -186.68 23.68 -186 23 C-182.375 23.375 -182.375 23.375 -179 24 C-179 24.66 -179 25.32 -179 26 C-172.48524942 25.90787129 -165.9708766 25.80058493 -159.45654297 25.68261719 C-157.2391531 25.64426866 -155.02169976 25.60942629 -152.80419922 25.578125 C-149.62183911 25.53260174 -146.43991818 25.47458681 -143.2578125 25.4140625 C-142.26194122 25.40251129 -141.26606995 25.39096008 -140.24002075 25.37905884 C-139.31921722 25.35918915 -138.3984137 25.33931946 -137.44970703 25.31884766 C-136.23059128 25.29886215 -136.23059128 25.29886215 -134.98684692 25.2784729 C-132.76959942 25.17100919 -132.76959942 25.17100919 -131 23 C-128.875 23.375 -128.875 23.375 -127 24 C-127 25.65 -127 27.3 -127 29 C-128.66611905 29.042721 -130.33382885 29.04063832 -132 29 C-132.33 28.67 -132.66 28.34 -133 28 C-134.41117702 27.87790076 -135.82820459 27.82229128 -137.24438477 27.79467773 C-138.14524307 27.77473251 -139.04610138 27.75478729 -139.97425842 27.73423767 C-140.95341721 27.71752518 -141.93257599 27.70081268 -142.94140625 27.68359375 C-143.93881332 27.66281265 -144.9362204 27.64203156 -145.96385193 27.62062073 C-149.16332843 27.55501363 -152.36288982 27.49618866 -155.5625 27.4375 C-157.72592039 27.39432538 -159.88933206 27.35071145 -162.05273438 27.30664062 C-167.36839874 27.19932097 -172.68414834 27.09757573 -178 27 C-178.144375 27.804375 -178.28875 28.60875 -178.4375 29.4375 C-179 32 -179 32 -180 33 C-183.465 33.495 -183.465 33.495 -187 34 C-190.3 37.3 -193.6 40.6 -197 44 C-172.25 44.33 -147.5 44.66 -122 45 C-121.34 43.68 -120.68 42.36 -120 41 C-116 41 -112 41 -108 41 C-106.04803245 39.49669701 -106.04803245 39.49669701 -104.25 37.4375 C-101.70842628 34.69836698 -99.08840723 32.16975553 -96.265625 29.7265625 C-91.8809083 25.92487642 -87.6586659 21.98449802 -83.5 17.9375 C-82.77296875 17.25623047 -82.0459375 16.57496094 -81.296875 15.87304688 C-77.11452451 11.99738697 -77.11452451 11.99738697 -75.71875 6.69140625 C-75.8115625 5.80324219 -75.904375 4.91507813 -76 4 C-74.95095825 2.3520813 -74.95095825 2.3520813 -73 1 C-69.91256714 0.64596558 -69.91256714 0.64596558 -66.06591797 0.67529297 C-65.3648291 0.67646118 -64.66374023 0.67762939 -63.94140625 0.67883301 C-61.62469914 0.68601959 -59.30872901 0.71422651 -56.9921875 0.7421875 C-55.38461973 0.75032224 -53.77704389 0.75698603 -52.16946411 0.76223755 C-47.93809667 0.77936129 -43.70704906 0.8136227 -39.47583008 0.85229492 C-32.69572022 0.91148484 -25.91544587 0.94527124 -19.13516617 0.97806168 C-16.76133021 0.9920745 -14.38765259 1.01365659 -12.0138855 1.03634644 C-10.5676891 1.04636481 -9.12149162 1.05623043 -7.67529297 1.06591797 C-6.40748993 1.07718719 -5.13968689 1.08845642 -3.83346558 1.10006714 C-1.09857989 1.32581638 -1.09857989 1.32581638 0 0 Z " fill="#DDA34D" transform="translate(366,13)"/>
<path d="M0 0 C3.1193075 2.59942292 4.76525091 4.072212 5.2578125 8.1171875 C4.92186694 13.82826208 2.77051266 18.68916466 -1 23 C-1.66 23 -2.32 23 -3 23 C-3.495 15.575 -3.495 15.575 -4 8 C-5.32 7.67 -6.64 7.34 -8 7 C-15.32485141 17.50132419 -16.73654253 27.36542532 -18 40 C-3.645 39.505 -3.645 39.505 11 39 C11.33 37.35 11.66 35.7 12 34 C14.3125 31.6875 14.3125 31.6875 17 30 C18.32 30 19.64 30 21 30 C20.9278125 30.80179688 20.855625 31.60359375 20.78125 32.4296875 C20.2096995 39.43118116 19.84894233 46.41404983 19.75 53.4375 C19.72873047 54.18177246 19.70746094 54.92604492 19.68554688 55.69287109 C19.65311631 60.85975438 20.68496413 64.37602047 23 69 C32.31954478 69.77662873 38.27837838 65.1812885 45.26953125 59.42578125 C50.41518604 54.8543197 55.20125399 49.9302185 60 45 C60.99788807 43.99789253 61.99660444 42.99659287 63 42 C64 43 64 43 64.24609375 45.30078125 C63.79632642 50.23394353 60.13049269 53.36029593 57 57 C56.31292969 57.82113281 55.62585938 58.64226562 54.91796875 59.48828125 C47.73832059 67.80632407 38.29533448 78.32437045 26.94140625 80.37109375 C23.36185008 80.5943931 20.96785592 79.98454611 17.75 78.4375 C12.8405185 74.08591412 10.78231792 69.53465558 10 63 C9.89166735 60.03983654 9.90487221 57.08659977 9.9375 54.125 C9.94201172 53.34125 9.94652344 52.5575 9.95117188 51.75 C9.96285907 49.83329986 9.98079092 47.91663952 10 46 C8.91203125 46.144375 7.8240625 46.28875 6.703125 46.4375 C5.21879923 46.62538934 3.73442129 46.81286682 2.25 47 C1.53972656 47.09539062 0.82945312 47.19078125 0.09765625 47.2890625 C-6.27711198 48.07885679 -12.58274473 48.09809817 -19 48 C-19.08040527 48.78536133 -19.16081055 49.57072266 -19.24365234 50.37988281 C-19.61689245 54.00366622 -19.99591514 57.62682354 -20.375 61.25 C-20.56449219 63.10238281 -20.56449219 63.10238281 -20.7578125 64.9921875 C-23.87919582 94.64532905 -23.87919582 94.64532905 -33 104 C-37.06849409 106.71232939 -39.16476784 106.30699887 -44 106 C-44.66 105.34 -45.32 104.68 -46 104 C-45.43181818 98.43181818 -45.43181818 98.43181818 -44 97 C-43.05125 97.061875 -42.1025 97.12375 -41.125 97.1875 C-37.98504389 97.33120062 -37.98504389 97.33120062 -36.25 95.375 C-32.60832217 88.45581213 -31.94608304 80.8824584 -30.875 73.25 C-30.69324219 72.02539062 -30.51148438 70.80078125 -30.32421875 69.5390625 C-29.34202541 62.64155439 -28.72767405 55.96750992 -29 49 C-29.66 48.67 -30.32 48.34 -31 48 C-31.20882812 48.54914063 -31.41765625 49.09828125 -31.6328125 49.6640625 C-33.5022693 52.85816298 -36.07405817 55.02350691 -38.875 57.375 C-39.45000244 57.85815674 -40.02500488 58.34131348 -40.61743164 58.83911133 C-46.58593572 63.70061342 -53.19317732 68.36203799 -60.97265625 69.39453125 C-65.00340755 68.86923334 -66.94293866 67.67386424 -70 65 C-71.6796875 61.546875 -71.6796875 61.546875 -72.875 57.75 C-73.08640625 57.1003125 -73.2978125 56.450625 -73.515625 55.78125 C-74.02931221 54.19348953 -74.51734293 52.59746675 -75 51 C-75.40089844 51.67804688 -75.80179688 52.35609375 -76.21484375 53.0546875 C-83.48242389 64.95308402 -91.09513785 74.83404395 -105.14453125 78.5703125 C-106.9375 78.75 -106.9375 78.75 -110 78 C-112.99715737 75.48802216 -114.75848838 72.72453485 -116 69 C-116.23177869 64.59620491 -116.03334333 60.79634401 -115.0625 56.5 C-113.87321341 51.19776395 -113.63351765 45.95002324 -113.51782227 40.53320312 C-113.36192187 36.46485036 -113.01095071 33.86619347 -110 31 C-107.4375 30.625 -107.4375 30.625 -105 31 C-102.63283507 33.36716493 -102.67982892 33.89009388 -102.625 37.125 C-102.70644939 42.72057334 -104.04574571 47.85447803 -105.57666016 53.20166016 C-106.92035932 58.02007203 -108.33799553 63.32400893 -106 68 C-100.60556063 68.82991375 -97.51985628 66.99615229 -93.29296875 63.9375 C-84.92758533 56.86896478 -80.46879719 47.59107126 -75.89306641 37.8828125 C-74.63678457 35.23424894 -73.31983064 32.61735428 -72 30 C-71.608125 29.21625 -71.21625 28.4325 -70.8125 27.625 C-70.544375 27.08875 -70.27625 26.5525 -70 26 C-68.68 26 -67.36 26 -66 26 C-66.02356567 27.08099976 -66.02356567 27.08099976 -66.04760742 28.18383789 C-66.11030487 31.47664415 -66.14910095 34.76932438 -66.1875 38.0625 C-66.21263672 39.19623047 -66.23777344 40.32996094 -66.26367188 41.49804688 C-66.31874795 47.79507765 -66.11557223 52.46730876 -63 58 C-61.91094374 59.30634494 -61.91094374 59.30634494 -59.2578125 59.20703125 C-49.21104036 58.56856731 -41.30412032 50.10643641 -34.51708984 43.39135742 C-33 42 -33 42 -31.15869141 40.6652832 C-26.50253372 37.21808643 -25.11520577 34.5204418 -24.21777344 28.81713867 C-24.1046582 27.94935791 -23.99154297 27.08157715 -23.875 26.1875 C-21.90823022 14.40068697 -18.81779028 7.28206961 -9 0 C-5.73616149 -1.63191925 -3.46807101 -0.88171297 0 0 Z " fill="#F4F4F4" transform="translate(297,203)"/>
<path d="M0 0 C2.15141487 -0.36914349 2.15141487 -0.36914349 4.87210083 -0.36076355 C5.90137695 -0.36488754 6.93065308 -0.36901154 7.99111938 -0.3732605 C9.12471893 -0.36247467 10.25831848 -0.35168884 11.42626953 -0.34057617 C12.61649719 -0.34101425 13.80672485 -0.34145233 15.03302002 -0.34190369 C18.30154545 -0.34016867 21.56968823 -0.32509764 24.83813715 -0.30418181 C28.25209047 -0.28545959 31.66605087 -0.2836681 35.08004761 -0.28010559 C41.54700949 -0.27077197 48.01381967 -0.24614053 54.48071468 -0.21605712 C61.84214735 -0.18255394 69.20358717 -0.16603741 76.56507707 -0.15097082 C91.71013598 -0.119592 106.85505284 -0.06680608 122 0 C123.59162079 5.57067277 124.20674944 10.21101581 124 16 C109.18809457 16.07004673 94.37621103 16.12296685 79.5641737 16.15543652 C72.68685053 16.17091274 65.80963021 16.19201652 58.93237305 16.22631836 C52.29937783 16.25938615 45.66646162 16.27683769 39.03338051 16.28463173 C36.49874499 16.29018834 33.96411553 16.30103856 31.42952538 16.31719017 C27.88802666 16.33886714 24.34697395 16.34197096 20.80541992 16.34057617 C19.22262238 16.35675491 19.22262238 16.35675491 17.60784912 16.3732605 C16.64451157 16.36913651 15.68117401 16.36501251 14.68864441 16.36076355 C13.85073459 16.36352893 13.01282476 16.36629431 12.14952374 16.36914349 C9.50087264 15.91428352 8.77738701 14.94166428 7 13 C4.11565205 12.26454482 4.11565205 12.26454482 1 13 C-1.18498253 14.90705512 -2.86880289 16.60717078 -4.6875 18.8125 C-5.6286374 19.90257592 -6.57003601 20.99242639 -7.51171875 22.08203125 C-8.79508527 23.58701523 -10.07480435 25.09711742 -11.28173828 26.6640625 C-13.81911769 28.63685877 -15.80398235 28.33945392 -18.98046875 28.29296875 C-20.14384766 28.28330078 -21.30722656 28.27363281 -22.50585938 28.26367188 C-24.32827148 28.2259668 -24.32827148 28.2259668 -26.1875 28.1875 C-27.41404297 28.17396484 -28.64058594 28.16042969 -29.90429688 28.14648438 C-32.93663664 28.11108741 -35.96809996 28.0617076 -39 28 C-33.89551178 21.81865131 -28.31705058 16.20177122 -22.625 10.5625 C-21.69816406 9.64017578 -20.77132813 8.71785156 -19.81640625 7.76757812 C-17.54654154 5.50941375 -15.27436462 3.25363058 -13 1 C-12.41476562 1.49757813 -11.82953125 1.99515625 -11.2265625 2.5078125 C-8.9442763 4.35194453 -8.9442763 4.35194453 -5.375 3.875 C-1.74064082 3.33269236 -1.74064082 3.33269236 0 0 Z " fill="#010100" transform="translate(376,411)"/>
<path d="M0 0 C3.37810112 0.60323234 5.32255812 1.90192055 8 4 C7.79648926 4.57540527 7.59297852 5.15081055 7.38330078 5.74365234 C5.09093741 12.70059655 4.32170538 19.33757103 3.875 26.625 C3.72814932 28.78396269 3.5797464 30.94282043 3.4296875 33.1015625 C3.37022949 34.04338379 3.31077148 34.98520508 3.24951172 35.95556641 C3.05959806 38.27281035 2.79149906 40.58379182 2.48803711 42.88891602 C1.71011986 48.94075737 1.73828236 55.01821275 1.70483398 61.1105957 C1.69320676 62.58758034 1.67258976 64.0645196 1.64331055 65.54125977 C1.60082314 67.69055291 1.58450661 69.83862162 1.57421875 71.98828125 C1.55963623 73.26227783 1.54505371 74.53627441 1.5300293 75.84887695 C1.68519876 79.09525406 1.68519876 79.09525406 4.02661133 80.93823242 C4.67782959 81.28861572 5.32904785 81.63899902 6 82 C5.6875 84.375 5.6875 84.375 5 87 C1.49812047 89.33458635 0.11971953 89.67260727 -4 89 C-10.86846142 81.38900222 -9.4262492 69.67715074 -9.15820312 60 C-8.79200069 53.05571681 -7.92079657 46.15151806 -7.06738281 39.25292969 C-6.39312424 33.78999388 -5.80904454 28.50588249 -6 23 C-8.06412461 25.79046853 -10.12611684 28.58250576 -12.1875 31.375 C-12.81519287 32.22465332 -13.44288574 33.07430664 -14.08959961 33.94970703 C-17.30499901 38.31073089 -20.50058493 42.68366521 -23.6484375 47.09375 C-24.22311768 47.8976416 -24.79779785 48.7015332 -25.38989258 49.52978516 C-26.47970167 51.05784035 -27.56567596 52.5886401 -28.6472168 54.12255859 C-35.28677035 63.42457633 -35.28677035 63.42457633 -39.9375 66.125 C-43.43358972 65.91311577 -45.65036996 63.40139713 -48 61 C-49.73609731 58.60029524 -51.09578405 56.07445355 -52.4375 53.4375 C-52.81511475 52.71312744 -53.19272949 51.98875488 -53.58178711 51.24243164 C-57.97730755 42.51150202 -61.01324403 33.2867943 -64 24 C-66.7815317 30.81225427 -68.47917024 37.71274588 -70.125 44.875 C-70.64628796 47.1228954 -71.16961978 49.37031812 -71.6953125 51.6171875 C-71.92234863 52.60315918 -72.14938477 53.58913086 -72.38330078 54.60498047 C-73 57 -73 57 -74 59 C-74.06073491 60.64473758 -74.06024844 62.29197038 -74.02734375 63.9375 C-74.01509766 64.91460937 -74.00285156 65.89171875 -73.99023438 66.8984375 C-73.95507693 68.96621592 -73.91601402 71.03393162 -73.87304688 73.1015625 C-73.86208984 74.07867187 -73.85113281 75.05578125 -73.83984375 76.0625 C-73.82300537 76.96097656 -73.80616699 77.85945313 -73.78881836 78.78515625 C-74 81 -74 81 -76 83 C-79.625 83.125 -79.625 83.125 -83 83 C-86.58342757 77.17693019 -86.80161923 71.79103301 -85.41845703 65.24975586 C-84.60561048 62.20991488 -83.72366123 59.19930968 -82.8125 56.1875 C-82.16702245 53.97331046 -81.52382284 51.75845568 -80.8828125 49.54296875 C-80.56344727 48.4451709 -80.24408203 47.34737305 -79.91503906 46.21630859 C-78.57367428 41.50149013 -77.36331564 36.75842877 -76.1875 32 C-75.99325439 31.21906982 -75.79900879 30.43813965 -75.59887695 29.63354492 C-74.47619355 25.07230461 -73.44021576 20.49883627 -72.47045898 15.90258789 C-71.79891506 13.18679036 -71.24999798 11.72499845 -69 10 C-64.74566007 9.45976636 -62.33212219 9.17192404 -58.6875 11.4375 C-57.16443892 13.75029645 -56.45530753 15.4031383 -55.63671875 18 C-53.93638946 23.24131912 -52.06001359 28.40370894 -50.125 33.5625 C-49.63580078 34.90344727 -49.63580078 34.90344727 -49.13671875 36.27148438 C-47.21164219 41.39128916 -45.03693182 45.89891393 -41.94873047 50.42163086 C-41 52 -41 52 -41 54 C-37.55090169 50.72869027 -34.88687863 47.52785824 -32.375 43.5 C-29.40643988 38.93855396 -26.25721819 34.79056645 -22.6875 30.6875 C-14.33869319 21.06850791 -6.88185601 10.71478847 0 0 Z " fill="#F6F6F6" transform="translate(156,198)"/>
<path d="M0 0 C1.11503906 0.01289062 2.23007813 0.02578125 3.37890625 0.0390625 C5.11720703 0.08933594 5.11720703 0.08933594 6.890625 0.140625 C8.65212891 0.16769531 8.65212891 0.16769531 10.44921875 0.1953125 C13.3471784 0.2424338 16.24348918 0.30821195 19.140625 0.390625 C17.72070613 3.66607341 16.01862209 5.69371006 13.40234375 8.10546875 C12.66435547 8.79189453 11.92636719 9.47832031 11.16601562 10.18554688 C10.39451172 10.89259766 9.62300781 11.59964844 8.828125 12.328125 C7.31057786 13.73240314 5.79363591 15.13733562 4.27734375 16.54296875 C3.20685791 17.53272705 3.20685791 17.53272705 2.11474609 18.54248047 C-0.26750348 20.77270917 -2.57499613 23.06064975 -4.859375 25.390625 C-5.6328125 24.8646875 -5.6328125 24.8646875 -6.421875 24.328125 C-9.8805191 22.99787727 -12.3033909 23.53455475 -15.859375 24.390625 C-16.849375 25.875625 -16.849375 25.875625 -17.859375 27.390625 C-20.01078987 27.75976849 -20.01078987 27.75976849 -22.73147583 27.75138855 C-23.76075195 27.75551254 -24.79002808 27.75963654 -25.85049438 27.7638855 C-26.98409393 27.75309967 -28.11769348 27.74231384 -29.28564453 27.73120117 C-30.47587219 27.73163925 -31.66609985 27.73207733 -32.89239502 27.73252869 C-36.16092045 27.73079367 -39.42906323 27.71572264 -42.69751215 27.69480681 C-46.11146547 27.67608459 -49.52542587 27.6742931 -52.93942261 27.67073059 C-59.40638449 27.66139697 -65.87319467 27.63676553 -72.34008968 27.60668212 C-79.70152235 27.57317894 -87.06296217 27.55666241 -94.42445207 27.54159582 C-109.56951314 27.510217 -124.71442326 27.45682856 -139.859375 27.390625 C-139.859375 22.110625 -139.859375 16.830625 -139.859375 11.390625 C-125.29096056 11.32123761 -110.72258516 11.26787109 -96.15403938 11.23518848 C-89.38990791 11.21970637 -82.62588086 11.19859139 -75.86181641 11.16430664 C-69.33905297 11.13126067 -62.81635746 11.1137917 -56.29351425 11.10599327 C-53.79991824 11.10043293 -51.30632844 11.08957561 -48.81277847 11.07343483 C-45.33094488 11.05178509 -41.84956541 11.04865288 -38.36767578 11.05004883 C-37.32758362 11.039263 -36.28749146 11.02847717 -35.21588135 11.0173645 C-34.27074677 11.02148849 -33.32561218 11.02561249 -32.35183716 11.02986145 C-31.52775423 11.02709607 -30.7036713 11.02433069 -29.85461617 11.02148151 C-29.19618658 11.14329886 -28.537757 11.26511621 -27.859375 11.390625 C-26.869375 12.875625 -26.869375 12.875625 -25.859375 14.390625 C-22.75471202 15.2143111 -21.78645334 15.45652334 -18.859375 14.390625 C-15.49371322 11.34793076 -12.72997745 7.89265387 -9.859375 4.390625 C-6.70933736 0.57904897 -4.9216255 -0.10044134 0 0 Z " fill="#000000" transform="translate(139.859375,61.609375)"/>
<path d="M0 0 C46.53 0 93.06 0 141 0 C141 5.94 141 11.88 141 18 C125.92735049 18.09254975 110.85474389 18.16395463 95.78187084 18.20724869 C88.78343732 18.22788419 81.78518345 18.2560233 74.78686523 18.30175781 C68.0371331 18.34584682 61.28762647 18.36911647 54.53774452 18.37950897 C51.95843881 18.38691809 49.37914368 18.40138569 46.79991722 18.42292023 C43.19605519 18.45182166 39.59297234 18.45596143 35.98901367 18.45410156 C34.91511383 18.46848267 33.84121399 18.48286377 32.73477173 18.49768066 C31.75460587 18.49218201 30.77444 18.48668335 29.76457214 18.48101807 C28.91191363 18.48470524 28.05925512 18.48839241 27.18075848 18.49219131 C25 18 25 18 23.20221424 15.96993637 C22.80548354 15.31985737 22.40875284 14.66977837 22 14 C20.9275 14.165 19.855 14.33 18.75 14.5 C15 15 15 15 11 15 C8.76484984 13.05437706 6.77067449 11.14636238 4.75 9 C4.19570313 8.42765625 3.64140625 7.8553125 3.0703125 7.265625 C1.70435878 5.85256943 0.35094389 4.42741242 -1 3 C-0.67 2.01 -0.34 1.02 0 0 Z " fill="#000000" transform="translate(359,378)"/>
<path d="M0 0 C0.68811768 0.13929932 1.37623535 0.27859863 2.08520508 0.42211914 C5.6103426 1.12100519 9.05786926 1.19193328 12.63671875 1.24609375 C14.11524107 1.27899755 15.59375655 1.31220972 17.07226562 1.34570312 C19.38968735 1.39329942 21.70707475 1.43782921 24.0246582 1.47680664 C26.27061495 1.51639237 28.51604836 1.56792436 30.76171875 1.62109375 C31.80545906 1.63371498 31.80545906 1.63371498 32.87028503 1.64659119 C37.77321303 1.77321303 37.77321303 1.77321303 40 4 C39.94779297 4.91990723 39.89558594 5.83981445 39.84179688 6.78759766 C40.12647099 12.56806365 45.02470814 15.98334821 48.95996094 19.85205078 C50.49271102 21.3677919 51.9844507 22.9170189 53.4765625 24.47265625 C58.25550832 29.61077875 58.25550832 29.61077875 64.3984375 32.59082031 C66.76478631 32.5794713 66.76478631 32.5794713 70 32 C71.485 32.99 71.485 32.99 73 34 C73 34.66 73 35.32 73 36 C119.53 36 166.06 36 214 36 C214 37.32 214 38.64 214 40 C167.47 40.33 120.94 40.66 73 41 C75.00993705 45.01987409 76.93846389 47.14516995 80.125 50.25 C81.03507813 51.14203125 81.94515625 52.0340625 82.8828125 52.953125 C83.58148438 53.62859375 84.28015625 54.3040625 85 55 C85.77085937 54.67644531 86.54171875 54.35289062 87.3359375 54.01953125 C90.18160101 52.93050167 91.98632397 52.60346368 95 53 C96.8125 54.375 96.8125 54.375 98 56 C98 56.66 98 57.32 98 58 C136.28 58 174.56 58 214 58 C214 60.64 214 63.28 214 66 C213.34 66.33 212.68 66.66 212 67 C212 65.02 212 63.04 212 61 C174.38 61 136.76 61 98 61 C97.34 62.32 96.68 63.64 96 65 C93.125 66 93.125 66 90 66 C88.0625 64.5625 88.0625 64.5625 86 62 C83.6956457 59.30754392 81.35558233 56.64771164 79 54 C78.28328125 53.19175781 77.5665625 52.38351562 76.828125 51.55078125 C72.0989133 46.48726321 68.94148341 43.88346152 62 43 C62 42.34 62 41.68 62 41 C61.34 41 60.68 41 60 41 C59.73775635 41.59941406 59.4755127 42.19882812 59.20532227 42.81640625 C57.92237541 45.14062677 56.76270335 46.27338992 54.71484375 47.9375 C49.00259899 52.78096719 43.67272754 57.99541489 38.34301758 63.25195312 C37.14960782 64.42359907 35.94996543 65.5889281 34.74438477 66.74804688 C32.9828242 68.44265242 31.24181698 70.15618823 29.50390625 71.875 C28.96544571 72.38562988 28.42698517 72.89625977 27.87220764 73.42236328 C24.17526386 77.14004364 23.44526344 79.86264246 23 85 C21 87 21 87 18 87.25 C15 87 15 87 13 85 C10.2956772 84.69964495 10.2956772 84.69964495 7.09741211 84.75708008 C5.85950424 84.75400345 4.62159637 84.75092682 3.34617615 84.74775696 C1.9898968 84.75465417 0.63361929 84.7619211 -0.72265625 84.76953125 C-2.10745704 84.77072297 -3.49225865 84.77117623 -4.87705994 84.7709198 C-7.77982642 84.77248482 -10.68246961 84.78077661 -13.58520508 84.79418945 C-17.31353857 84.81119521 -21.04173668 84.81500336 -24.77010441 84.81424427 C-27.62932131 84.81451563 -30.48850837 84.81999113 -33.34771538 84.82724571 C-34.72289237 84.83043657 -36.09807275 84.83240076 -37.47325325 84.83313942 C-39.39111668 84.83529765 -41.3089676 84.84482706 -43.22680664 84.85473633 C-44.86656212 84.86045403 -44.86656212 84.86045403 -46.53944397 84.86628723 C-48.94494784 84.72238262 -48.94494784 84.72238262 -50 86 C-51.66617115 86.04063832 -53.33388095 86.042721 -55 86 C-55 84.35 -55 82.7 -55 81 C-53.0625 80.4375 -53.0625 80.4375 -51 80 C-50.67 80.33 -50.34 80.66 -50 81 C-48.06776005 81.12357078 -46.13106201 81.17794458 -44.19506836 81.20532227 C-42.95385727 81.22526749 -41.71264618 81.24521271 -40.43382263 81.26576233 C-39.0691643 81.28274793 -37.70450463 81.29962669 -36.33984375 81.31640625 C-34.95121125 81.33696936 -33.5625851 81.35796566 -32.17396545 81.37937927 C-28.51285941 81.43466647 -24.85169627 81.48404626 -21.19049072 81.53222656 C-17.45702003 81.58239321 -13.72363262 81.63810446 -9.99023438 81.69335938 C-2.6602267 81.80102218 4.66985005 81.90244894 12 82 C12.4640625 81.0409375 12.4640625 81.0409375 12.9375 80.0625 C14 78 14 78 15 77 C16.11375 76.87625 17.2275 76.7525 18.375 76.625 C22.26331195 76.31337125 22.26331195 76.31337125 25 73 C12.13 72.505 12.13 72.505 -1 72 C-1.495 73.485 -1.495 73.485 -2 75 C-3.32 74.67 -4.64 74.34 -6 74 C-6.625 72.125 -6.625 72.125 -7 70 C-6.34 69.34 -5.68 68.68 -5 68 C-2.875 68.375 -2.875 68.375 -1 69 C-1 69.66 -1 70.32 -1 71 C2.96649506 71.080337 6.92854139 71.10011512 10.89575195 71.06713867 C12.89746775 71.06259095 14.89911903 71.10407201 16.90039062 71.14648438 C23.96121745 71.05755709 28.22859343 70.65176024 33.37890625 65.55859375 C35.21543103 63.41573053 36.74037955 61.51924091 38 59 C31.52200279 59.11767829 25.04417172 59.24250822 18.56640625 59.37231445 C16.362662 59.4156301 14.15888492 59.45730759 11.95507812 59.49731445 C8.78765976 59.55509844 5.62040614 59.61876976 2.453125 59.68359375 C1.46757629 59.70030624 0.48202759 59.71701874 -0.53338623 59.73423767 C-1.91436493 59.7641555 -1.91436493 59.7641555 -3.32324219 59.79467773 C-4.53569611 59.81799416 -4.53569611 59.81799416 -5.77264404 59.84178162 C-8.01856652 59.92160869 -8.01856652 59.92160869 -10.16729736 60.63783264 C-10.77208923 60.75734787 -11.3768811 60.8768631 -12 61 C-12.66 60.34 -13.32 59.68 -14 59 C-13.625 56.875 -13.625 56.875 -13 55 C-11.35 55 -9.7 55 -8 55 C-8 55.66 -8 56.32 -8 57 C-1.19037711 57.29177524 5.61292292 57.44404635 12.4284668 57.5065918 C14.73808549 57.54339015 17.04745273 57.61031066 19.35522461 57.7097168 C34.28546926 58.46892957 34.28546926 58.46892957 47.38720703 52.24951172 C55.7037075 44.85414286 55.7037075 44.85414286 60 35 C57.93690327 30.77455103 54.92435242 27.2472447 51.8125 23.75 C51.35835724 23.23944061 50.90421448 22.72888123 50.43630981 22.20285034 C43.53073223 14.85849262 36.97237146 12.07182167 26.9140625 11.51953125 C14.51801876 11.14295582 1.13944556 11.17741265 -11 14 C-11.495 11.525 -11.495 11.525 -12 9 C-10.34385343 8.61781233 -8.67542976 8.28604898 -7 8 C-6.505 8.495 -6.505 8.495 -6 9 C-3.33573315 9.16003488 -0.69439572 9.25942889 1.97265625 9.31640625 C2.77029892 9.33718735 3.56794159 9.35796844 4.38975525 9.37937927 C6.94724611 9.44496158 9.5048428 9.50379967 12.0625 9.5625 C13.79232882 9.60567699 15.52214679 9.64929101 17.25195312 9.69335938 C21.5011926 9.80065172 25.7505389 9.90189426 30 10 C30 8.02 30 6.04 30 4 C25.93724554 4.13923048 21.87487143 4.28753918 17.8125 4.4375 C16.66201172 4.47681641 15.51152344 4.51613281 14.32617188 4.55664062 C13.21435547 4.59853516 12.10253906 4.64042969 10.95703125 4.68359375 C9.93585205 4.72025146 8.91467285 4.75690918 7.86254883 4.79467773 C4.99133958 4.93715662 4.99133958 4.93715662 2.19018555 5.58227539 C1.46742432 5.72012451 0.74466309 5.85797363 0 6 C-0.495 5.505 -0.495 5.505 -1 5 C-3.21687994 4.84126045 -5.43855298 4.74866163 -7.66015625 4.68359375 C-8.65685585 4.6524221 -8.65685585 4.6524221 -9.6736908 4.62062073 C-11.80318543 4.55506342 -13.93280668 4.49621215 -16.0625 4.4375 C-17.50326847 4.39432061 -18.94402399 4.35070651 -20.38476562 4.30664062 C-23.9230404 4.19937607 -27.46145869 4.09812629 -31 4 C-31 3.34 -31 2.68 -31 2 C-30.09644775 1.97494385 -29.19289551 1.9498877 -28.26196289 1.92407227 C-24.9203572 1.82912683 -21.57893748 1.72988379 -18.23754883 1.62768555 C-16.7893576 1.5842837 -15.34111346 1.54261256 -13.89282227 1.50268555 C-11.81510441 1.44510938 -9.73765427 1.38137972 -7.66015625 1.31640625 C-6.40855713 1.27974854 -5.15695801 1.24309082 -3.86743164 1.20532227 C-1.10369496 1.32196094 -1.10369496 1.32196094 0 0 Z " fill="#E7AB50" transform="translate(286,338)"/>
<path d="M0 0 C3.0625 0.1875 3.0625 0.1875 5.0625 2.1875 C7.73825413 2.48781719 7.73825413 2.48781719 10.90161133 2.43041992 C12.73910698 2.43503487 12.73910698 2.43503487 14.61372375 2.43974304 C15.95732814 2.43284276 17.30093068 2.4255756 18.64453125 2.41796875 C20.01974952 2.41677653 21.39496861 2.41632388 22.77018738 2.4165802 C25.65616945 2.41501448 28.54202763 2.40672116 31.42797852 2.39331055 C35.12004614 2.37636841 38.81197693 2.37249487 42.50407887 2.37325573 C45.34630124 2.37298313 48.18849393 2.36748665 51.03070641 2.36025429 C52.39141299 2.35707989 53.75212293 2.35510309 55.11283302 2.35436058 C57.02030271 2.35218126 58.92775962 2.34262165 60.83520508 2.33276367 C61.91949295 2.32895187 63.00378082 2.32514008 64.1209259 2.32121277 C66.87635176 2.19596159 69.38049278 1.81127176 72.0625 1.1875 C72.3925 2.8375 72.7225 4.4875 73.0625 6.1875 C69.3125 7.3125 69.3125 7.3125 67.0625 6.1875 C65.09215512 6.06733328 63.11785064 6.01014667 61.14404297 5.98217773 C59.90290741 5.96223251 58.66177185 5.94228729 57.38302612 5.92173767 C56.0235812 5.9047534 54.66413495 5.88787459 53.3046875 5.87109375 C51.91748433 5.85052419 50.53028743 5.82952772 49.14309692 5.80812073 C45.49022495 5.75290019 41.83729641 5.70349089 38.18432617 5.65527344 C34.45746826 5.60505825 30.73069259 5.54937229 27.00390625 5.49414062 C19.69017379 5.38655929 12.37637299 5.28511432 5.0625 5.1875 C4.918125 5.826875 4.77375 6.46625 4.625 7.125 C4.0625 9.1875 4.0625 9.1875 3.0625 10.1875 C1.94875 10.31125 0.835 10.435 -0.3125 10.5625 C-4.04053815 11.2052652 -4.61004209 11.5173489 -6.9375 14.1875 C-2.81255849 14.24534708 1.31227944 14.28104407 5.4375 14.3125 C6.613125 14.32925781 7.78875 14.34601563 9 14.36328125 C10.12148437 14.36972656 11.24296875 14.37617187 12.3984375 14.3828125 C13.43532715 14.39328613 14.4722168 14.40375977 15.54052734 14.41455078 C18.23358623 14.44365026 18.23358623 14.44365026 20.0625 12.1875 C22.1875 12.5625 22.1875 12.5625 24.0625 13.1875 C24.0625 14.8375 24.0625 16.4875 24.0625 18.1875 C22.1875 18.8125 22.1875 18.8125 20.0625 19.1875 C19.0725 18.1975 19.0725 18.1975 18.0625 17.1875 C13.58820297 16.53341143 9.07846422 16.53805791 4.5625 16.4375 C3.31984375 16.36273438 2.0771875 16.28796875 0.796875 16.2109375 C-4.76395387 16.10535214 -8.47778541 16.1267983 -13.07421875 19.46679688 C-15.54517821 21.93601376 -17.79658112 24.4297273 -19.9375 27.1875 C-13.45964391 27.21285173 -6.98180062 27.23036762 -0.50390625 27.24243164 C1.69987466 27.24746088 3.90365222 27.25428505 6.10742188 27.26293945 C9.27474796 27.2750666 12.44202994 27.28074241 15.609375 27.28515625 C16.59492371 27.29031754 17.58047241 27.29547882 18.59588623 27.30079651 C19.5165387 27.30087204 20.43719116 27.30094757 21.38574219 27.30102539 C22.1940448 27.303246 23.00234741 27.30546661 23.83514404 27.30775452 C26.08530838 27.25883355 26.08530838 27.25883355 28.29229736 26.61790466 C28.87646423 26.47587112 29.4606311 26.33383759 30.0625 26.1875 C31.0625 27.1875 31.0625 27.1875 31.125 29.75 C31.104375 30.554375 31.08375 31.35875 31.0625 32.1875 C29.39638095 32.230221 27.72867115 32.22813832 26.0625 32.1875 C25.7325 31.8575 25.4025 31.5275 25.0625 31.1875 C-4.12191488 27.29284545 -4.12191488 27.29284545 -31.23046875 35.0234375 C-35.60044463 38.9346084 -40.00363076 43.54777165 -41.9375 49.1875 C-41.30327545 57.57317391 -34.21557437 64.50925442 -28.328125 69.90625 C-15.47604401 79.95575374 6.81288994 75.65139537 22.00769043 74.44233704 C24.10265191 74.24206901 24.10265191 74.24206901 26.20422363 73.53556824 C26.81745483 73.42070572 27.43068604 73.3058432 28.0625 73.1875 C28.7225 73.8475 29.3825 74.5075 30.0625 75.1875 C29.6875 77.3125 29.6875 77.3125 29.0625 79.1875 C27.4125 79.1875 25.7625 79.1875 24.0625 79.1875 C24.0625 78.5275 24.0625 77.8675 24.0625 77.1875 C12.1825 77.1875 0.3025 77.1875 -11.9375 77.1875 C-11.9375 79.1675 -11.9375 81.1475 -11.9375 83.1875 C-7.87474554 83.04826952 -3.81237143 82.89996082 0.25 82.75 C1.40048828 82.71068359 2.55097656 82.67136719 3.73632812 82.63085938 C4.84814453 82.58896484 5.95996094 82.54707031 7.10546875 82.50390625 C8.12664795 82.46724854 9.14782715 82.43059082 10.19995117 82.39282227 C12.90078463 82.19909937 15.42416128 81.78298047 18.0625 81.1875 C18.0625 81.8475 18.0625 82.5075 18.0625 83.1875 C27.9625 83.1875 37.8625 83.1875 48.0625 83.1875 C48.0625 83.8475 48.0625 84.5075 48.0625 85.1875 C46.7307373 85.22508423 46.7307373 85.22508423 45.37207031 85.26342773 C42.06953963 85.35871797 38.76717541 85.45794207 35.46484375 85.55981445 C34.03715612 85.60305318 32.60942046 85.64473585 31.18164062 85.68481445 C29.12615504 85.74278602 27.07090872 85.80640175 25.015625 85.87109375 C23.77973633 85.90775146 22.54384766 85.94440918 21.27050781 85.98217773 C18.68031472 86.14795798 16.54931552 86.54938642 14.0625 87.1875 C13.7325 86.8575 13.4025 86.5275 13.0625 86.1875 C10.63967583 86.0523177 8.24124437 85.97703606 5.81640625 85.94140625 C4.32486384 85.90847135 2.83332753 85.87525965 1.34179688 85.84179688 C-1.01957036 85.7943285 -3.38091225 85.74990184 -5.74243164 85.71069336 C-8.01474997 85.67106128 -10.28655574 85.61949823 -12.55859375 85.56640625 C-13.26696884 85.5579921 -13.97534393 85.54957794 -14.70518494 85.54090881 C-19.71082648 85.41417352 -19.71082648 85.41417352 -21.9375 83.1875 C-22.05351562 82.10009521 -22.16953125 81.01269043 -22.2890625 79.89233398 C-23.33259145 73.93015332 -27.29553031 70.82483366 -31.49072266 66.68725586 C-32.93327781 65.25419441 -34.33122487 63.78577781 -35.73046875 62.31054688 C-41.4265808 56.34979051 -41.4265808 56.34979051 -49.125 54.55859375 C-50.383125 54.76613281 -51.64125 54.97367188 -52.9375 55.1875 C-53.9275 53.2075 -53.9275 53.2075 -54.9375 51.1875 C-100.8075 51.1875 -146.6775 51.1875 -193.9375 51.1875 C-193.9375 49.8675 -193.9375 48.5475 -193.9375 47.1875 C-148.0675 47.1875 -102.1975 47.1875 -54.9375 47.1875 C-56.9042397 42.27065074 -58.35435452 40.4405245 -62.0625 36.875 C-62.97257813 35.99199219 -63.88265625 35.10898438 -64.8203125 34.19921875 C-65.86832031 33.20341797 -65.86832031 33.20341797 -66.9375 32.1875 C-67.68644531 32.52136719 -68.43539062 32.85523438 -69.20703125 33.19921875 C-72.82532596 34.50884473 -75.23547552 34.09554374 -78.9375 33.1875 C-79.5975 32.1975 -80.2575 31.2075 -80.9375 30.1875 C-83.01959275 29.72571138 -83.01959275 29.72571138 -85.46792603 29.78877258 C-86.42147476 29.77623444 -87.3750235 29.76369629 -88.35746765 29.7507782 C-89.40691055 29.75221329 -90.45635345 29.75364838 -91.53759766 29.75512695 C-93.19126595 29.73983948 -93.19126595 29.73983948 -94.87834167 29.72424316 C-98.5361326 29.69395731 -102.19366234 29.6848233 -105.8515625 29.67578125 C-108.38220094 29.65894615 -110.91283096 29.64079752 -113.44345093 29.62138367 C-119.43221759 29.57862382 -125.42090825 29.54915058 -131.40977132 29.52606028 C-138.22718136 29.49903807 -145.04444957 29.45512486 -151.86175847 29.40977156 C-165.8869287 29.31684628 -179.91214381 29.24520178 -193.9375 29.1875 C-193.9375 28.1975 -193.9375 27.2075 -193.9375 26.1875 C-193.35881542 26.18603344 -192.78013084 26.18456688 -192.18391037 26.18305588 C-178.10400904 26.14600615 -164.02434267 26.08701607 -149.9446373 26.00359726 C-143.13577631 25.96378568 -136.32703124 25.93140408 -129.51806641 25.91650391 C-122.94974727 25.90210949 -116.38175069 25.86702269 -109.81357574 25.81919098 C-107.30493538 25.80432843 -104.79624375 25.79645621 -102.28755951 25.79561615 C-98.77953068 25.79325948 -95.27250511 25.76628304 -91.76464844 25.73339844 C-90.72239609 25.7384288 -89.68014374 25.74345917 -88.60630798 25.74864197 C-83.09363224 25.8085291 -83.09363224 25.8085291 -78.47564697 23.16900635 C-77.96805847 22.51510925 -77.46046997 21.86121216 -76.9375 21.1875 C-73.5 20.9375 -73.5 20.9375 -69.9375 22.1875 C-68.75941488 23.97145747 -67.60055813 25.77306653 -66.57421875 27.6484375 C-64.40987904 31.00600506 -61.84066271 33.76742462 -59.0625 36.625 C-58.32157104 37.42321167 -58.32157104 37.42321167 -57.56567383 38.23754883 C-53.83654527 41.9995546 -51.12115721 42.75246494 -45.9375 43.1875 C-44.9475 43.8475 -43.9575 44.5075 -42.9375 45.1875 C-37.68710644 40.06408472 -32.45657737 34.92100608 -27.23925781 29.76391602 C-25.46282823 28.01260013 -23.68193285 26.26580193 -21.89648438 24.52368164 C-19.32790147 22.0158809 -16.77592212 19.49216582 -14.2265625 16.96484375 C-13.02805161 15.8050425 -13.02805161 15.8050425 -11.80532837 14.62181091 C-7.45659908 10.27529913 -5.0368905 7.27358776 -3.9375 1.1875 C-2.9375 0.1875 -2.9375 0.1875 0 0 Z " fill="#E3A84F" transform="translate(193.9375,74.8125)"/>
<path d="M0 0 C3.18819752 0.33916995 5.95781049 0.98593683 9 2 C12.99531348 2.23925237 16.99828805 2.18976229 21 2.1875 C22.16523193 2.18814453 23.33046387 2.18878906 24.53100586 2.18945312 C32.34941798 2.14225409 40.01915342 1.72355132 47.77148438 0.71166992 C61.40665609 -1.06222927 61.40665609 -1.06222927 66 2 C65.49551109 6.17284401 64.45432229 7.98879713 61.375 10.8125 C58.68122253 13.37278053 56.10881655 15.93001632 53.6875 18.75 C50.69320498 22.23078231 47.61154228 25.62421565 44.5 29 C40.86307895 32.95026899 37.27325466 36.93329535 33.7578125 40.9921875 C30.88859236 44.2694745 27.94864673 47.48295429 25.015625 50.703125 C23.22856433 52.73954298 21.61039059 54.82419864 20 57 C20.7027002 56.89453857 21.40540039 56.78907715 22.12939453 56.68041992 C29.20775286 55.61998955 36.28794869 54.57268143 43.36962891 53.53466797 C45.65107386 53.19866498 47.93207229 52.85960121 50.21240234 52.51611328 C72.72922017 49.12589108 72.72922017 49.12589108 83 50 C84 51 84 51 84.0625 53.5625 C84.041875 54.366875 84.02125 55.17125 84 56 C71.50186316 58.54758185 58.94950648 60.71997718 46.3550415 62.72918701 C44.7295684 62.98861145 43.1043537 63.24966135 41.47943115 63.51251221 C39.13035419 63.89149363 36.78041633 64.26422043 34.4296875 64.6328125 C33.27845901 64.8137999 33.27845901 64.8137999 32.10397339 64.9984436 C28.00890293 65.61933692 23.92831574 66.12255291 19.80175781 66.48339844 C18.51992111 66.59819046 18.51992111 66.59819046 17.21218872 66.71530151 C15.58364284 66.85402006 13.95373072 66.97784811 12.32272339 67.08377075 C7.14529466 67.52022796 4.28222877 68.87431456 0 72 C-4.28571429 71.71428571 -4.28571429 71.71428571 -6 70 C-6.35546875 67.73046875 -6.35546875 67.73046875 -6 65 C-4.05078125 62.67578125 -4.05078125 62.67578125 -1.3125 60.3125 C-0.82136719 59.88243652 -0.33023437 59.45237305 0.17578125 59.00927734 C3.30356279 56.31077989 6.5520333 53.8047163 9.86572266 51.34057617 C19.78682111 43.96125899 27.404267 35.19469563 35.01171875 25.4609375 C37.93076605 21.8479713 41.06636721 18.44434978 44.21484375 15.03125 C46.04445938 13.1231855 46.04445938 13.1231855 47 11 C44.60385425 11.14165893 42.20817103 11.28818841 39.8125 11.4375 C39.13896484 11.47681641 38.46542969 11.51613281 37.77148438 11.55664062 C35.00974897 11.73177507 32.33183063 11.92741205 29.625 12.51953125 C25.49461553 13.27553912 21.37775662 13.22533329 17.1875 13.25 C15.89102539 13.2809375 15.89102539 13.2809375 14.56835938 13.3125 C8.68124861 13.34804482 4.37559813 12.42729402 -1 10 C-2 9 -2 9 -2.1875 5.5625 C-2 2 -2 2 0 0 Z " fill="#F4B555" transform="translate(358,209)"/>
<path d="M0 0 C2.02647591 -0.36914349 2.02647591 -0.36914349 4.56838989 -0.36076355 C5.53035278 -0.36488754 6.49231567 -0.36901154 7.48342896 -0.3732605 C8.5422226 -0.36247467 9.60101624 -0.35168884 10.69189453 -0.34057617 C11.80409363 -0.34101425 12.91629272 -0.34145233 14.06219482 -0.34190369 C17.75257693 -0.33980722 21.44250939 -0.31643527 25.1328125 -0.29296875 C27.6858597 -0.28737586 30.23891011 -0.28310432 32.79196167 -0.28010559 C38.83394977 -0.26980646 44.87574371 -0.24614246 50.91765392 -0.21605712 C57.79541833 -0.18255144 64.67319041 -0.16603678 71.55101609 -0.15097082 C85.7007674 -0.11959381 99.85037482 -0.06680943 114 0 C114 2.64 114 5.28 114 8 C70.11 8 26.22 8 -19 8 C-17.02 5.69 -15.04 3.38 -13 1 C-11.68 1.66 -10.36 2.32 -9 3 C-5.41600593 3.41692853 -5.41600593 3.41692853 -2 3 C-1.34 2.01 -0.68 1.02 0 0 Z " fill="#090603" transform="translate(386,431)"/>
<path d="M0 0 C42.9 0 85.8 0 130 0 C128.35 1.98 126.7 3.96 125 6 C124.484375 5.67 123.96875 5.34 123.4375 5 C120.13775866 3.64625996 117.52986508 3.67316064 114 4 C113.34 4.99 112.68 5.98 112 7 C110.00475883 7.36914349 110.00475883 7.36914349 107.50753784 7.36076355 C106.08983597 7.36694954 106.08983597 7.36694954 104.64349365 7.3732605 C103.60340149 7.36247467 102.56330933 7.35168884 101.49169922 7.34057617 C100.39900726 7.34101425 99.30631531 7.34145233 98.18051147 7.34190369 C94.55505743 7.33980731 90.93006114 7.31643584 87.3046875 7.29296875 C84.79648084 7.28737583 82.28827092 7.2831043 79.78005981 7.28010559 C73.84433569 7.26980671 67.90875937 7.24614291 61.97311127 7.21605712 C54.55371813 7.17926528 47.13430471 7.16312895 39.71484375 7.14648438 C26.47647844 7.11427761 13.23824966 7.06362601 0 7 C0 4.69 0 2.38 0 0 Z " fill="#010000" transform="translate(0,62)"/>
<path d="M0 0 C0.66 0.33 1.32 0.66 2 1 C4.00097518 1.12027472 6.0058621 1.17737258 8.01025391 1.20532227 C9.27141022 1.22526749 10.53256653 1.24521271 11.8319397 1.26576233 C13.21347937 1.28274665 14.59502034 1.29962546 15.9765625 1.31640625 C17.38618582 1.3369756 18.79580297 1.35797207 20.20541382 1.37937927 C23.91747035 1.43460195 27.62958257 1.48401031 31.34173584 1.53222656 C35.12891603 1.58244018 38.91601526 1.63812697 42.703125 1.69335938 C50.13534812 1.80094333 57.56763852 1.90238773 65 2 C65 1.34 65 0.68 65 0 C66.65 0 68.3 0 70 0 C70.625 1.875 70.625 1.875 71 4 C70.34 4.66 69.68 5.32 69 6 C67.65649986 5.71035148 66.32496984 5.3651627 65 5 C62.7693019 4.91240941 60.53612422 4.88234051 58.30371094 4.88647461 C57.63988403 4.88632858 56.97605713 4.88618256 56.29211426 4.8860321 C54.1061675 4.88672668 51.92030681 4.89449769 49.734375 4.90234375 C48.21551561 4.90420955 46.69665562 4.90563269 45.17779541 4.90663147 C41.18622161 4.9104439 37.19468438 4.9202633 33.203125 4.93133545 C29.1276092 4.94157697 25.05208747 4.94613496 20.9765625 4.95117188 C12.98435825 4.96188673 4.99218368 4.97894784 -3 5 C-1.125 1.125 -1.125 1.125 0 0 Z " fill="#C29044" transform="translate(285,29)"/>
<path d="M0 0 C2.6875 0.875 2.6875 0.875 3.6875 1.875 C4.10518721 5.55064747 3.90629471 7.47241774 2.125 10.75 C-0.3125 12.875 -0.3125 12.875 -3.875 13.3125 C-7.3125 12.875 -7.3125 12.875 -10.3125 10.875 C-10.11641954 6.65927015 -9.52400725 5.10618235 -6.625 1.9375 C-3.3125 -0.125 -3.3125 -0.125 0 0 Z " fill="#EFEFEF" transform="translate(323.3125,201.125)"/>
<path d="M0 0 C1.65 0 3.3 0 5 0 C5 0.66 5 1.32 5 2 C20.84 2 36.68 2 53 2 C52.67 2.99 52.34 3.98 52 5 C51.42006287 4.99777939 50.84012573 4.99555878 50.24261475 4.99327087 C44.20813615 4.97115208 38.17366906 4.95606579 32.13916016 4.94506836 C29.88687675 4.94003877 27.63459661 4.93321434 25.38232422 4.92456055 C22.14549961 4.91243494 18.90871817 4.90675794 15.671875 4.90234375 C14.66445251 4.89718246 13.65703003 4.89202118 12.61907959 4.88670349 C11.67840637 4.88662796 10.73773315 4.88655243 9.76855469 4.88647461 C8.94248718 4.884254 8.11641968 4.88203339 7.26531982 4.87974548 C4.98638495 4.91439362 4.98638495 4.91439362 2.82696533 5.63209534 C2.22406677 5.75350388 1.62116821 5.87491241 1 6 C0.34 5.34 -0.32 4.68 -1 4 C-0.625 1.875 -0.625 1.875 0 0 Z " fill="#BE8D42" transform="translate(273,393)"/>
<path d="M0 0 C1.65 0 3.3 0 5 0 C5 0.66 5 1.32 5 2 C19.85 2 34.7 2 50 2 C50.495 2.99 50.495 2.99 51 4 C50.43259094 4.01030746 49.86518188 4.02061493 49.28057861 4.03123474 C43.37573972 4.13940321 37.47105024 4.25399285 31.56640625 4.37231445 C29.362662 4.4156301 27.15888492 4.45730759 24.95507812 4.49731445 C21.78765976 4.55509844 18.62040614 4.61876976 15.453125 4.68359375 C14.46757629 4.70030624 13.48202759 4.71701874 12.46661377 4.73423767 C11.5459613 4.75418289 10.62530884 4.77412811 9.67675781 4.79467773 C8.8684552 4.81022202 8.06015259 4.8257663 7.22735596 4.84178162 C4.98143348 4.92160869 4.98143348 4.92160869 2.83270264 5.63783264 C1.92551483 5.81710548 1.92551483 5.81710548 1 6 C0.34 5.34 -0.32 4.68 -1 4 C-0.625 1.875 -0.625 1.875 0 0 Z " fill="#BE8D42" transform="translate(259,458)"/>
<path d="M0 0 C1.66883284 0.32231324 3.33502957 0.65829494 5 1 C7.12928664 1.14352249 9.26158653 1.24564505 11.39453125 1.31640625 C12.59658203 1.35830078 13.79863281 1.40019531 15.03710938 1.44335938 C16.90592773 1.50233398 16.90592773 1.50233398 18.8125 1.5625 C20.71032227 1.62727539 20.71032227 1.62727539 22.64648438 1.69335938 C25.76421889 1.7992447 28.88203035 1.90132405 32 2 C32 2.33 32 2.66 32 3 C30.83428467 3.029729 30.83428467 3.029729 29.64501953 3.06005859 C26.13799309 3.15507009 22.63158206 3.26484559 19.125 3.375 C17.29001953 3.42140625 17.29001953 3.42140625 15.41796875 3.46875 C13.66806641 3.52675781 13.66806641 3.52675781 11.8828125 3.5859375 C10.80402832 3.6173584 9.72524414 3.6487793 8.61376953 3.68115234 C5.84238346 3.74676322 5.84238346 3.74676322 4 6 C2.32236599 5.72717587 0.65678825 5.37939632 -1 5 C-3.34814366 4.8548483 -5.69919857 4.75364089 -8.05078125 4.68359375 C-8.70958786 4.66281265 -9.36839447 4.64203156 -10.04716492 4.62062073 C-12.13551185 4.55564511 -14.22397612 4.49648425 -16.3125 4.4375 C-17.7350378 4.39426521 -19.15756406 4.3506494 -20.58007812 4.30664062 C-24.05326297 4.20001784 -27.52657726 4.09860652 -31 4 C-31 3.34 -31 2.68 -31 2 C-30.09644775 1.97494385 -29.19289551 1.9498877 -28.26196289 1.92407227 C-24.9203572 1.82912683 -21.57893748 1.72988379 -18.23754883 1.62768555 C-16.7893576 1.5842837 -15.34111346 1.54261256 -13.89282227 1.50268555 C-11.81510441 1.44510938 -9.73765427 1.38137972 -7.66015625 1.31640625 C-6.40855713 1.27974854 -5.15695801 1.24309082 -3.86743164 1.20532227 C-1.10369496 1.32196094 -1.10369496 1.32196094 0 0 Z " fill="#DAA24C" transform="translate(286,338)"/>
<path d="M0 0 C1.65 0.33 3.3 0.66 5 1 C4.67 2.65 4.34 4.3 4 6 C3.35331863 5.83923477 2.70663727 5.67846954 2.0403595 5.51283264 C-1.85833637 4.85522011 -5.70380114 4.82286518 -9.64575195 4.79467773 C-10.5047963 4.78477814 -11.36384064 4.77487854 -12.24891663 4.76467896 C-15.07867713 4.73317787 -17.90845439 4.70835168 -20.73828125 4.68359375 C-22.70412117 4.66301438 -24.66995677 4.64201765 -26.63578796 4.62062073 C-31.80274952 4.56550158 -36.96975034 4.51604759 -42.13677979 4.46777344 C-47.41218549 4.41748416 -52.68753438 4.3618369 -57.96289062 4.30664062 C-68.30854518 4.19918331 -78.65424913 4.09771085 -89 4 C-89 3.67 -89 3.34 -89 3 C-59.96 3 -30.92 3 -1 3 C-0.67 2.01 -0.34 1.02 0 0 Z " fill="#FFBD59" transform="translate(361,43)"/>
<path d="M0 0 C0.97002205 0.24114784 0.97002205 0.24114784 1.9596405 0.48716736 C5.85833637 1.14477989 9.70380114 1.17713482 13.64575195 1.20532227 C14.5047963 1.21522186 15.36384064 1.22512146 16.24891663 1.23532104 C19.07867713 1.26682213 21.90845439 1.29164832 24.73828125 1.31640625 C26.70412117 1.33698562 28.66995677 1.35798235 30.63578796 1.37937927 C35.80274952 1.43449842 40.96975034 1.48395241 46.13677979 1.53222656 C51.41218549 1.58251584 56.68753438 1.6381631 61.96289062 1.69335938 C72.30854518 1.80081669 82.65424913 1.90228915 93 2 C93 2.33 93 2.66 93 3 C63.96 3.33 34.92 3.66 5 4 C4.67 4.66 4.34 5.32 4 6 C2.35 5.67 0.7 5.34 -1 5 C-0.67 3.35 -0.34 1.7 0 0 Z " fill="#FFBD59" transform="translate(133,451)"/>
<path d="M0 0 C1.85565186 0.36216736 1.85565186 0.36216736 4 1 C5.43399229 1.10931529 6.87173698 1.1750065 8.30957031 1.20532227 C9.15013977 1.22526749 9.99070923 1.24521271 10.85675049 1.26576233 C11.75480408 1.28247482 12.65285767 1.29918732 13.578125 1.31640625 C14.5046991 1.33718735 15.43127319 1.35796844 16.38592529 1.37937927 C19.34054272 1.44466961 22.29524768 1.50366431 25.25 1.5625 C27.25521732 1.60570473 29.26042585 1.64931965 31.265625 1.69335938 C36.17699404 1.80032999 41.08845097 1.90165518 46 2 C46.33 1.34 46.66 0.68 47 0 C46.67 1.32 46.34 2.64 46 4 C32.14 4 18.28 4 4 4 C4 4.66 4 5.32 4 6 C2.35 6 0.7 6 -1 6 C-1.625 4.125 -1.625 4.125 -2 2 C-1.34 1.34 -0.68 0.68 0 0 Z " fill="#BE8D42" transform="translate(279,471)"/>
<path d="M0 0 C0.99 0 1.98 0 3 0 C3 0.66 3 1.32 3 2 C12.9 2 22.8 2 33 2 C33 2.66 33 3.32 33 4 C31.6682373 4.03758423 31.6682373 4.03758423 30.30957031 4.07592773 C27.00703963 4.17121797 23.70467541 4.27044207 20.40234375 4.37231445 C18.97465612 4.41555318 17.54692046 4.45723585 16.11914062 4.49731445 C14.06365504 4.55528602 12.00840872 4.61890175 9.953125 4.68359375 C8.71723633 4.72025146 7.48134766 4.75690918 6.20800781 4.79467773 C3.61781472 4.96045798 1.48681552 5.36188642 -1 6 C-1.33 5.67 -1.66 5.34 -2 5 C-3.99782126 4.84174742 -6.00088834 4.74880829 -8.00390625 4.68359375 C-9.21884766 4.64169922 -10.43378906 4.59980469 -11.68554688 4.55664062 C-12.96494141 4.51732422 -14.24433594 4.47800781 -15.5625 4.4375 C-16.84576172 4.39431641 -18.12902344 4.35113281 -19.45117188 4.30664062 C-22.63399853 4.200152 -25.81690674 4.09814038 -29 4 C-29 3.67 -29 3.34 -29 3 C-27.78884521 2.970271 -27.78884521 2.970271 -26.55322266 2.93994141 C-22.91014125 2.84494101 -19.26765314 2.73516088 -15.625 2.625 C-14.35398438 2.5940625 -13.08296875 2.563125 -11.7734375 2.53125 C-10.56171875 2.49257812 -9.35 2.45390625 -8.1015625 2.4140625 C-6.98088379 2.3826416 -5.86020508 2.3512207 -4.70556641 2.31884766 C-1.85289588 2.26588797 -1.85289588 2.26588797 0 0 Z " fill="#DEA44D" transform="translate(209,156)"/>
<path d="M0 0 C0.67458252 0.13929932 1.34916504 0.27859863 2.04418945 0.42211914 C5.79510656 1.15544869 9.48595545 1.19348539 13.29296875 1.24609375 C14.90820921 1.27899965 16.52344345 1.31221178 18.13867188 1.34570312 C20.67338231 1.39329522 23.2080619 1.43781628 25.74291992 1.47680664 C28.19735027 1.51638276 30.6513007 1.56792071 33.10546875 1.62109375 C33.86691696 1.6295079 34.62836517 1.63792206 35.41288757 1.64659119 C40.77322294 1.77322294 40.77322294 1.77322294 43 4 C41.3125769 4.03758423 41.3125769 4.03758423 39.59106445 4.07592773 C35.4070345 4.17028435 31.22315964 4.27043553 27.03930664 4.37231445 C25.23042435 4.4155566 23.42150405 4.45723904 21.61254883 4.49731445 C19.00850995 4.5552774 16.40466045 4.61889613 13.80078125 4.68359375 C12.99538406 4.70030624 12.18998688 4.71701874 11.36018372 4.73423767 C7.45930785 4.83655581 3.81046293 5.06157749 0 6 C-0.38218767 4.34385343 -0.71395102 2.67542976 -1 1 C-0.67 0.67 -0.34 0.34 0 0 Z " fill="#BE8D42" transform="translate(275,346)"/>
<path d="M0 0 C2.0625 0.4375 2.0625 0.4375 4 1 C4.5625 2.9375 4.5625 2.9375 5 5 C4 6 4 6 1.4375 6.0625 C0.2309375 6.0315625 0.2309375 6.0315625 -1 6 C-1 5.34 -1 4.68 -1 4 C-13.21 4 -25.42 4 -38 4 C-38.33 3.34 -38.66 2.68 -39 2 C-37.28115601 1.96241577 -37.28115601 1.96241577 -35.52758789 1.92407227 C-31.29146402 1.83016894 -27.05551072 1.72990725 -22.81958008 1.62768555 C-20.98335753 1.5842718 -19.14709292 1.54260161 -17.31079102 1.50268555 C-14.67711689 1.44513831 -12.04365579 1.38140002 -9.41015625 1.31640625 C-8.58411392 1.29969376 -7.75807159 1.28298126 -6.90699768 1.26576233 C-3.14523247 1.52192567 -3.14523247 1.52192567 0 0 Z " fill="#BE8D42" transform="translate(219,148)"/>
<path d="M0 0 C2.125 0.375 2.125 0.375 4 1 C4.5625 2.9375 4.5625 2.9375 5 5 C4 6 4 6 1.4375 6.0625 C0.2309375 6.0315625 0.2309375 6.0315625 -1 6 C-1 5.34 -1 4.68 -1 4 C-22.45 4 -43.9 4 -66 4 C-66 3.67 -66 3.34 -66 3 C-65.20264435 2.99191315 -64.4052887 2.98382629 -63.58377075 2.97549438 C-56.07901354 2.89763797 -48.57445328 2.81037493 -41.06993294 2.71247292 C-37.21153502 2.66247105 -33.353165 2.61614164 -29.49462891 2.578125 C-25.7727441 2.54132093 -22.05109056 2.49497485 -18.32940292 2.44193649 C-16.90764283 2.42336646 -15.48583312 2.40826817 -14.06399918 2.39665604 C-12.07658496 2.37983885 -10.08929717 2.34966773 -8.10205078 2.31884766 C-6.40328293 2.29886215 -6.40328293 2.29886215 -4.67019653 2.2784729 C-1.84753067 2.2674951 -1.84753067 2.2674951 0 0 Z " fill="#FFBD59" transform="translate(366,13)"/>
<path d="M0 0 C1.2065625 0.0309375 1.2065625 0.0309375 2.4375 0.0625 C2.4375 0.7225 2.4375 1.3825 2.4375 2.0625 C23.5575 2.0625 44.6775 2.0625 66.4375 2.0625 C66.4375 2.3925 66.4375 2.7225 66.4375 3.0625 C45.3175 3.0625 24.1975 3.0625 2.4375 3.0625 C2.1075 4.0525 1.7775 5.0425 1.4375 6.0625 C0.1175 5.7325 -1.2025 5.4025 -2.5625 5.0625 C-3.125 3.125 -3.125 3.125 -3.5625 1.0625 C-2.5625 0.0625 -2.5625 0.0625 0 0 Z " fill="#FFBD59" transform="translate(130.5625,480.9375)"/>
<path d="M0 0 C1.67542976 0.28604898 3.34385343 0.61781233 5 1 C4.67 2.65 4.34 4.3 4 6 C2.35 5.67 0.7 5.34 -1 5 C-1 4.34 -1 3.68 -1 3 C-21.46 3 -41.92 3 -63 3 C-63 2.67 -63 2.34 -63 2 C-62.22547989 1.98969254 -61.45095978 1.97938507 -60.65296936 1.96876526 C-53.36871079 1.87095703 -46.08454054 1.76846689 -38.80042362 1.66066074 C-35.05521202 1.60539769 -31.30999266 1.55197245 -27.56469727 1.50268555 C-23.95311414 1.45509165 -20.34162868 1.40275094 -16.73016167 1.34705925 C-15.34942481 1.32661306 -13.96866114 1.30790378 -12.58787727 1.29092598 C-10.66016686 1.2669322 -8.73254251 1.23629736 -6.80493164 1.20532227 C-5.15612755 1.18200584 -5.15612755 1.18200584 -3.47401428 1.15821838 C-1.05693927 1.27711808 -1.05693927 1.27711808 0 0 Z " fill="#FFBD59" transform="translate(262,76)"/>
<path d="M0 0 C2.125 0.375 2.125 0.375 4 1 C4 2.65 4 4.3 4 6 C2.33388095 6.042721 0.66617115 6.04063832 -1 6 C-1.495 5.505 -1.495 5.505 -2 5 C-3.56448383 4.87736612 -5.13432772 4.82220478 -6.70336914 4.79467773 C-8.20481224 4.7647599 -8.20481224 4.7647599 -9.73658752 4.73423767 C-11.36937904 4.70916893 -11.36937904 4.70916893 -13.03515625 4.68359375 C-14.14354355 4.66281265 -15.25193085 4.64203156 -16.39390564 4.62062073 C-19.95003808 4.55500377 -23.50624703 4.49618404 -27.0625 4.4375 C-29.46680493 4.39432632 -31.87110199 4.35071242 -34.27539062 4.30664062 C-40.18351185 4.19931008 -46.09170991 4.09756669 -52 4 C-51.01 3.01 -50.02 2.02 -49 1 C-49 1.66 -49 2.32 -49 3 C-42.34283962 2.90787565 -35.68604907 2.80058984 -29.02929688 2.68261719 C-26.76340318 2.64426729 -24.49744735 2.60942517 -22.23144531 2.578125 C-18.97959133 2.53260473 -15.7281674 2.47458924 -12.4765625 2.4140625 C-11.45881744 2.40251129 -10.44107239 2.39096008 -9.39248657 2.37905884 C-8.45166229 2.35918915 -7.51083801 2.33931946 -6.54150391 2.31884766 C-5.71099518 2.30552399 -4.88048645 2.29220032 -4.02481079 2.2784729 C-1.77386386 2.17664458 -1.77386386 2.17664458 0 0 Z " fill="#FEBC58" transform="translate(221,101)"/>
<path d="M0 0 C1.65 0.33 3.3 0.66 5 1 C5.33 1.99 5.66 2.98 6 4 C5.01 4.99 4.02 5.98 3 7 C1.68 6.34 0.36 5.68 -1 5 C-0.67 3.35 -0.34 1.7 0 0 Z " fill="#E4A94F" transform="translate(143,465)"/>
<path d="M0 0 C2.0625 0.1875 2.0625 0.1875 4 1 C4.33 1.99 4.66 2.98 5 4 C4.01 5.485 4.01 5.485 3 7 C1.68 6.67 0.36 6.34 -1 6 C-1.625 4.125 -1.625 4.125 -2 2 C-1.34 1.34 -0.68 0.68 0 0 Z " fill="#E1A64E" transform="translate(281,406)"/>
<path d="M0 0 C2.0625 0.4375 2.0625 0.4375 4 1 C4 2.65 4 4.3 4 6 C2.125 6.625 2.125 6.625 0 7 C-0.66 6.34 -1.32 5.68 -2 5 C-1.46428571 1.46428571 -1.46428571 1.46428571 0 0 Z " fill="#E2A74F" transform="translate(214,87)"/>
<path d="M0 0 C2.0625 0.1875 2.0625 0.1875 4 1 C4.33 1.99 4.66 2.98 5 4 C4.67 4.66 4.34 5.32 4 6 C2.35 6 0.7 6 -1 6 C-1.625 4.125 -1.625 4.125 -2 2 C-1.34 1.34 -0.68 0.68 0 0 Z " fill="#E9AC51" transform="translate(279,471)"/>
<path d="M0 0 C1.2065625 0.0309375 1.2065625 0.0309375 2.4375 0.0625 C3.0625 1.9375 3.0625 1.9375 3.4375 4.0625 C2.7775 4.7225 2.1175 5.3825 1.4375 6.0625 C-0.6875 5.6875 -0.6875 5.6875 -2.5625 5.0625 C-3.125 3.125 -3.125 3.125 -3.5625 1.0625 C-2.5625 0.0625 -2.5625 0.0625 0 0 Z " fill="#EBAE52" transform="translate(275.5625,392.9375)"/>
<path d="M0 0 C2.125 0.375 2.125 0.375 4 1 C4.5625 2.9375 4.5625 2.9375 5 5 C4 6 4 6 1.4375 6.0625 C0.2309375 6.0315625 0.2309375 6.0315625 -1 6 C-1.625 4.125 -1.625 4.125 -2 2 C-1.34 1.34 -0.68 0.68 0 0 Z " fill="#ECAE52" transform="translate(219,148)"/>
<path d="M0 0 C1.65 0.33 3.3 0.66 5 1 C4.67 2.65 4.34 4.3 4 6 C1.5625 5.625 1.5625 5.625 -1 5 C-1.33 4.34 -1.66 3.68 -2 3 C-1.34 2.01 -0.68 1.02 0 0 Z " fill="#F0B153" transform="translate(361,43)"/>
<path d="M0 0 C2.125 0.375 2.125 0.375 4 1 C4.5625 2.9375 4.5625 2.9375 5 5 C4 6 4 6 1.4375 6.0625 C0.2309375 6.0315625 0.2309375 6.0315625 -1 6 C-1.625 4.125 -1.625 4.125 -2 2 C-1.34 1.34 -0.68 0.68 0 0 Z " fill="#E6AB50" transform="translate(366,13)"/>
<path d="M0 0 C1.2065625 0.0309375 1.2065625 0.0309375 2.4375 0.0625 C2.7675 1.0525 3.0975 2.0425 3.4375 3.0625 C2.4475 4.5475 2.4475 4.5475 1.4375 6.0625 C0.1175 5.7325 -1.2025 5.4025 -2.5625 5.0625 C-3.125 3.125 -3.125 3.125 -3.5625 1.0625 C-2.5625 0.0625 -2.5625 0.0625 0 0 Z " fill="#ECAF52" transform="translate(130.5625,480.9375)"/>
<path d="M0 0 C1.2065625 0.0309375 1.2065625 0.0309375 2.4375 0.0625 C2.7675 1.0525 3.0975 2.0425 3.4375 3.0625 C2.4475 4.5475 2.4475 4.5475 1.4375 6.0625 C0.1175 5.7325 -1.2025 5.4025 -2.5625 5.0625 C-3.125 3.125 -3.125 3.125 -3.5625 1.0625 C-2.5625 0.0625 -2.5625 0.0625 0 0 Z " fill="#EAAD51" transform="translate(261.5625,457.9375)"/>
<path d="M0 0 C1.65 0.33 3.3 0.66 5 1 C4.67 2.65 4.34 4.3 4 6 C2.35 5.67 0.7 5.34 -1 5 C-0.67 3.35 -0.34 1.7 0 0 Z " fill="#EEB053" transform="translate(275,346)"/>
<path d="M0 0 C1.65 0 3.3 0 5 0 C5.625 1.875 5.625 1.875 6 4 C5.34 4.66 4.68 5.32 4 6 C1.9375 5.8125 1.9375 5.8125 0 5 C-0.33 4.01 -0.66 3.02 -1 2 C-0.67 1.34 -0.34 0.68 0 0 Z " fill="#EEB053" transform="translate(350,29)"/>
<path d="M0 0 C1.65 0.33 3.3 0.66 5 1 C4.67 2.65 4.34 4.3 4 6 C2.35 5.67 0.7 5.34 -1 5 C-0.67 3.35 -0.34 1.7 0 0 Z " fill="#F2B354" transform="translate(133,451)"/>
<path d="M0 0 C2.0625 0.4375 2.0625 0.4375 4 1 C4.5625 2.9375 4.5625 2.9375 5 5 C4 6 4 6 1.4375 6.0625 C0.2309375 6.0315625 0.2309375 6.0315625 -1 6 C-1.042721 4.33388095 -1.04063832 2.66617115 -1 1 C-0.67 0.67 -0.34 0.34 0 0 Z " fill="#EEB053" transform="translate(232,418)"/>
<path d="M0 0 C2.125 0.375 2.125 0.375 4 1 C4 2.65 4 4.3 4 6 C2.35 6 0.7 6 -1 6 C-1.625 4.125 -1.625 4.125 -2 2 C-1.34 1.34 -0.68 0.68 0 0 Z " fill="#F0B254" transform="translate(221,101)"/>
<path d="M0 0 C1.65 0.33 3.3 0.66 5 1 C4.67 2.65 4.34 4.3 4 6 C2.35 5.67 0.7 5.34 -1 5 C-0.67 3.35 -0.34 1.7 0 0 Z " fill="#EDB053" transform="translate(262,76)"/>
<path d="M0 0 C2.125 0.375 2.125 0.375 4 1 C4 2.65 4 4.3 4 6 C2.35 6 0.7 6 -1 6 C-1.625 4.125 -1.625 4.125 -2 2 C-1.34 1.34 -0.68 0.68 0 0 Z " fill="#EEB053" transform="translate(235,36)"/>
<path d="M0 0 C1.65 0 3.3 0 5 0 C5 1.65 5 3.3 5 5 C3.125 5.625 3.125 5.625 1 6 C0.34 5.34 -0.32 4.68 -1 4 C-0.625 1.875 -0.625 1.875 0 0 Z " fill="#EFB153" transform="translate(215,23)"/>
</svg>
